<?xml version="1.0" encoding="UTF-8"?>
<!DOCTYPE svg PUBLIC "-//W3C//DTD SVG 1.1//EN" "http://www.w3.org/Graphics/SVG/1.1/DTD/svg11.dtd">
<svg xmlns="http://www.w3.org/2000/svg" version="1.1" width="824px" height="303px" style="shape-rendering:geometricPrecision; text-rendering:geometricPrecision; image-rendering:optimizeQuality; fill-rule:evenodd; clip-rule:evenodd" xmlns:xlink="http://www.w3.org/1999/xlink">
<g><path style="opacity:0.047" fill="#333333" d="M 323.5,79.5 C 323.167,79.5 322.833,79.5 322.5,79.5C 299.5,78.1667 276.5,78.1667 253.5,79.5C 252.833,79.5 252.5,79.8333 252.5,80.5C 251.355,79.2073 251.689,78.0407 253.5,77C 276.5,76.3333 299.5,76.3333 322.5,77C 323.252,77.6708 323.586,78.5041 323.5,79.5 Z"/></g>
<g><path style="opacity:0.048" fill="#292929" d="M 365.5,91.5 C 362.363,87.5146 359.363,83.3479 356.5,79C 353.5,78.8333 350.5,78.6667 347.5,78.5C 344.087,78.517 341.087,79.1836 338.5,80.5C 338.5,81.1667 338.5,81.8333 338.5,82.5C 336.992,80.8292 336.659,78.9959 337.5,77C 343.833,76.3333 350.167,76.3333 356.5,77C 360.148,81.4704 363.148,86.3038 365.5,91.5 Z"/></g>
<g><path style="opacity:0.031" fill="#0e0e0e" d="M 737.5,77.5 C 742.316,76.3503 747.316,76.1837 752.5,77C 753.999,77.8382 754.332,78.6715 753.5,79.5C 753.167,79.5 752.833,79.5 752.5,79.5C 752.5,78.8333 752.167,78.5 751.5,78.5C 747.03,77.5139 742.363,77.1805 737.5,77.5 Z"/></g>
<g><path style="opacity:0.496" fill="#575757" d="M 434.5,77.5 C 434.5,78.8333 434.5,80.1667 434.5,81.5C 434.167,81.5 433.833,81.5 433.5,81.5C 433.5,80.5 433.5,79.5 433.5,78.5C 427.833,78.5 422.167,78.5 416.5,78.5C 416.5,78.1667 416.5,77.8333 416.5,77.5C 422.5,76.1667 428.5,76.1667 434.5,77.5 Z"/></g>
<g><path style="opacity:0.492" fill="#3f3f3f" d="M 486.5,168.5 C 480.833,168.5 475.167,168.5 469.5,168.5C 469.667,138.831 469.5,109.165 469,79.5C 464.263,78.5308 459.43,78.1975 454.5,78.5C 454.167,78.5 453.833,78.5 453.5,78.5C 453.5,78.1667 453.5,77.8333 453.5,77.5C 458.316,76.3503 463.316,76.1837 468.5,77C 469,77.5 469.5,78 470,78.5C 470.5,108.165 470.667,137.831 470.5,167.5C 476.026,167.179 481.36,167.512 486.5,168.5 Z"/></g>
<g><path style="opacity:1" fill="#f9f9f9" d="M 633.5,93.5 C 634.419,96.0892 636.086,98.0892 638.5,99.5C 638.427,101.027 639.094,102.027 640.5,102.5C 640.992,104.819 641.992,106.819 643.5,108.5C 644.5,112.501 645.5,116.501 646.5,120.5C 647.292,126.13 647.625,131.797 647.5,137.5C 646.419,140.627 645.753,143.96 645.5,147.5C 642.694,154.446 639.361,161.112 635.5,167.5C 635.5,168.167 635.167,168.5 634.5,168.5C 632.5,169.833 630.833,171.5 629.5,173.5C 621.917,178.463 613.917,182.463 605.5,185.5C 598.852,186.139 592.186,186.473 585.5,186.5C 583.095,185.232 580.428,184.565 577.5,184.5C 577.167,184.5 576.833,184.5 576.5,184.5C 575.791,183.596 574.791,183.263 573.5,183.5C 571.151,181.659 568.485,180.326 565.5,179.5C 563.45,177.453 561.117,175.786 558.5,174.5C 553.392,169.059 549.059,163.059 545.5,156.5C 545.573,154.973 544.906,153.973 543.5,153.5C 543.011,152.005 542.345,150.671 541.5,149.5C 540.833,145.167 540.167,140.833 539.5,136.5C 539.334,131.489 539.501,126.489 540,121.5C 542.017,115.088 544.184,108.754 546.5,102.5C 549.635,99.1919 552.635,95.6919 555.5,92C 559.705,88.0708 564.372,84.9041 569.5,82.5C 573.497,81.3973 577.164,79.7306 580.5,77.5C 600.776,74.4861 618.443,79.8194 633.5,93.5 Z M 599.5,94.5 C 601.042,95.3007 602.708,95.634 604.5,95.5C 606.302,96.4582 608.302,97.1249 610.5,97.5C 610.973,98.9063 611.973,99.573 613.5,99.5C 614.262,101.262 615.596,102.262 617.5,102.5C 624.269,109.371 628.269,117.371 629.5,126.5C 629.393,131.143 629.393,135.476 629.5,139.5C 629.5,139.833 629.5,140.167 629.5,140.5C 627.853,144.424 626.186,148.424 624.5,152.5C 620.461,157.54 615.794,161.873 610.5,165.5C 607.341,166.331 604.341,167.331 601.5,168.5C 587.468,170.267 575.468,166.267 565.5,156.5C 565.262,154.596 564.262,153.262 562.5,152.5C 562.34,150.847 561.674,149.514 560.5,148.5C 560.598,146.447 559.931,144.78 558.5,143.5C 557.669,136.869 557.336,130.202 557.5,123.5C 560.097,115.214 564.43,107.881 570.5,101.5C 579.309,95.8815 588.976,93.5481 599.5,94.5 Z"/></g>
<g><path style="opacity:0.499" fill="#383838" d="M 692.5,81.5 C 690.952,81.1788 690.285,80.1788 690.5,78.5C 683.978,78.1765 677.645,78.5098 671.5,79.5C 670.502,113.996 670.168,148.663 670.5,183.5C 669.336,148.669 669.169,113.669 670,78.5C 670.75,77.8742 671.584,77.3742 672.5,77C 678.167,76.3333 683.833,76.3333 689.5,77C 691.376,77.9184 692.376,79.4184 692.5,81.5 Z"/></g>
<g><path style="opacity:1" fill="#fdfdfd" d="M 322.5,79.5 C 322.818,84.0323 322.485,88.3656 321.5,92.5C 304.167,92.5 286.833,92.5 269.5,92.5C 269.5,102.5 269.5,112.5 269.5,122.5C 285.5,122.5 301.5,122.5 317.5,122.5C 318.486,126.97 318.819,131.637 318.5,136.5C 302.167,136.5 285.833,136.5 269.5,136.5C 269.172,147.679 269.505,158.679 270.5,169.5C 287.503,169.333 304.503,169.5 321.5,170C 322.467,174.401 322.8,178.901 322.5,183.5C 299.908,184.489 277.242,184.822 254.5,184.5C 253.507,149.573 253.174,114.573 253.5,79.5C 276.5,78.1667 299.5,78.1667 322.5,79.5 Z"/></g>
<g><path style="opacity:1" fill="#f8f8f8" d="M 365.5,91.5 C 366.338,91.8417 366.672,92.5084 366.5,93.5C 366.427,95.0269 367.094,96.0269 368.5,96.5C 368.427,98.0269 369.094,99.0269 370.5,99.5C 372.087,103.683 374.421,107.35 377.5,110.5C 377.427,112.027 378.094,113.027 379.5,113.5C 380.338,113.842 380.672,114.508 380.5,115.5C 381.34,117.853 382.674,119.853 384.5,121.5C 384.684,124.173 385.851,124.84 388,123.5C 397.511,108.472 407.011,93.4718 416.5,78.5C 422.167,78.5 427.833,78.5 433.5,78.5C 433.5,79.5 433.5,80.5 433.5,81.5C 420.572,101.693 407.905,122.027 395.5,142.5C 394.504,155.99 394.171,169.656 394.5,183.5C 389.167,183.5 383.833,183.5 378.5,183.5C 378.167,183.5 377.833,183.5 377.5,183.5C 377.667,169.496 377.5,155.496 377,141.5C 364.142,121.102 351.309,100.769 338.5,80.5C 341.087,79.1836 344.087,78.517 347.5,78.5C 350.5,78.6667 353.5,78.8333 356.5,79C 359.363,83.3479 362.363,87.5146 365.5,91.5 Z"/></g>
<g><path style="opacity:0.206" fill="#1f1f1f" d="M 434.5,77.5 C 437.167,78.8333 437.167,80.1667 434.5,81.5C 434.5,80.1667 434.5,78.8333 434.5,77.5 Z"/></g>
<g><path style="opacity:1" fill="#fafafa" d="M 454.5,78.5 C 459.43,78.1975 464.263,78.5308 469,79.5C 469.5,109.165 469.667,138.831 469.5,168.5C 486.735,169.18 504.069,169.846 521.5,170.5C 521.8,175.099 521.467,179.599 520.5,184C 497.996,184.83 475.663,184.663 453.5,183.5C 453.174,148.427 453.507,113.427 454.5,78.5 Z"/></g>
<g><path style="opacity:1" fill="#fbfbfb" d="M 692.5,81.5 C 692.427,83.0269 693.094,84.0269 694.5,84.5C 695.338,84.8417 695.672,85.5084 695.5,86.5C 695.75,88.674 696.75,90.3406 698.5,91.5C 699.674,92.5137 700.34,93.847 700.5,95.5C 700.427,97.0269 701.094,98.0269 702.5,98.5C 703.079,101.331 704.412,103.664 706.5,105.5C 707.338,105.842 707.672,106.508 707.5,107.5C 707.427,109.027 708.094,110.027 709.5,110.5C 710.338,110.842 710.672,111.508 710.5,112.5C 710.75,114.674 711.75,116.341 713.5,117.5C 714.338,117.842 714.672,118.508 714.5,119.5C 714.75,121.674 715.75,123.341 717.5,124.5C 718.338,124.842 718.672,125.508 718.5,126.5C 718.5,127.167 718.5,127.833 718.5,128.5C 718.5,130.5 719.5,131.5 721.5,131.5C 722.338,131.842 722.672,132.508 722.5,133.5C 722.75,135.674 723.75,137.341 725.5,138.5C 725.75,140.674 726.75,142.341 728.5,143.5C 729.674,144.514 730.34,145.847 730.5,147.5C 731.11,149.434 732.11,151.101 733.5,152.5C 733.328,153.492 733.662,154.158 734.5,154.5C 734.312,156.103 734.812,157.437 736,158.5C 736.5,131.835 736.667,105.169 736.5,78.5C 741.5,78.5 746.5,78.5 751.5,78.5C 752.167,78.5 752.5,78.8333 752.5,79.5C 752.5,114.167 752.5,148.833 752.5,183.5C 746.833,183.5 741.167,183.5 735.5,183.5C 734.391,183.443 733.391,183.11 732.5,182.5C 725.625,168.646 717.958,155.312 709.5,142.5C 703.589,130.337 696.922,118.67 689.5,107.5C 689.5,106.833 689.5,106.167 689.5,105.5C 688.791,104.596 687.791,104.263 686.5,104.5C 686.5,130.833 686.5,157.167 686.5,183.5C 681.5,183.5 676.5,183.5 671.5,183.5C 671.5,148.833 671.5,114.167 671.5,79.5C 677.645,78.5098 683.978,78.1765 690.5,78.5C 690.285,80.1788 690.952,81.1788 692.5,81.5 Z"/></g>
<g><path style="opacity:0.734" fill="#b3b3b3" d="M 453.5,78.5 C 453.833,78.5 454.167,78.5 454.5,78.5C 453.507,113.427 453.174,148.427 453.5,183.5C 452.167,148.5 452.167,113.5 453.5,78.5 Z"/></g>
<g><path style="opacity:0.509" fill="#7f7f7f" d="M 253.5,79.5 C 253.174,114.573 253.507,149.573 254.5,184.5C 254.167,184.5 253.833,184.5 253.5,184.5C 252.502,150.004 252.168,115.337 252.5,80.5C 252.5,79.8333 252.833,79.5 253.5,79.5 Z"/></g>
<g><path style="opacity:0.312" fill="#2f2f2f" d="M 322.5,79.5 C 322.833,79.5 323.167,79.5 323.5,79.5C 324.645,83.3112 324.812,87.3112 324,91.5C 323.583,92.756 322.75,93.4226 321.5,93.5C 321.5,93.1667 321.5,92.8333 321.5,92.5C 322.485,88.3656 322.818,84.0323 322.5,79.5 Z"/></g>
<g><path style="opacity:0.616" fill="#5a5a5a" d="M 580.5,77.5 C 577.164,79.7306 573.497,81.3973 569.5,82.5C 569.5,82.1667 569.5,81.8333 569.5,81.5C 572.66,79 576.327,77.6667 580.5,77.5 Z"/></g>
<g><path style="opacity:0.644" fill="#9c9c9c" d="M 671.5,79.5 C 671.5,114.167 671.5,148.833 671.5,183.5C 676.5,183.5 681.5,183.5 686.5,183.5C 681.695,184.487 676.695,184.821 671.5,184.5C 670.833,184.5 670.5,184.167 670.5,183.5C 670.168,148.663 670.502,113.996 671.5,79.5 Z"/></g>
<g><path style="opacity:0.122" fill="#212121" d="M 692.5,81.5 C 693.906,81.9731 694.573,82.9731 694.5,84.5C 693.094,84.0269 692.427,83.0269 692.5,81.5 Z"/></g>
<g><path style="opacity:0.318" fill="#323232" d="M 633.5,93.5 C 618.443,79.8194 600.776,74.4861 580.5,77.5C 596.969,73.274 612.302,76.1074 626.5,86C 629.117,88.4423 631.45,90.9423 633.5,93.5 Z"/></g>
<g><path style="opacity:0.021" fill="#040404" d="M 735.5,87.5 C 735.5,109.5 735.5,131.5 735.5,153.5C 734.833,153.5 734.5,153.833 734.5,154.5C 733.662,154.158 733.328,153.492 733.5,152.5C 732.11,151.101 731.11,149.434 730.5,147.5C 731.794,148.29 732.961,149.29 734,150.5C 734.168,129.329 734.668,108.329 735.5,87.5 Z"/></g>
<g><path style="opacity:0.094" fill="#202020" d="M 695.5,86.5 C 697.25,87.6594 698.25,89.326 698.5,91.5C 696.75,90.3406 695.75,88.674 695.5,86.5 Z"/></g>
<g><path style="opacity:0.475" fill="#777777" d="M 586.5,93.5 C 590.981,92.3516 595.648,92.1849 600.5,93C 602.32,93.2004 603.653,94.0337 604.5,95.5C 602.708,95.634 601.042,95.3007 599.5,94.5C 595.366,93.5151 591.032,93.1818 586.5,93.5 Z"/></g>
<g><path style="opacity:0.525" fill="#3d3d3d" d="M 569.5,81.5 C 569.5,81.8333 569.5,82.1667 569.5,82.5C 564.372,84.9041 559.705,88.0708 555.5,92C 552.635,95.6919 549.635,99.1919 546.5,102.5C 551.043,93.7016 557.71,86.8683 566.5,82C 567.448,81.5172 568.448,81.3505 569.5,81.5 Z"/></g>
<g><path style="opacity:0.192" fill="#2b2b2b" d="M 366.5,93.5 C 367.906,93.9731 368.573,94.9731 368.5,96.5C 367.094,96.0269 366.427,95.0269 366.5,93.5 Z"/></g>
<g><path style="opacity:0.055" fill="#2b2b2b" d="M 586.5,93.5 C 591.032,93.1818 595.366,93.5151 599.5,94.5C 588.976,93.5481 579.309,95.8815 570.5,101.5C 574.697,96.765 580.031,94.0983 586.5,93.5 Z"/></g>
<g><path style="opacity:0.417" fill="#6a6a6a" d="M 737.5,77.5 C 742.363,77.1805 747.03,77.5139 751.5,78.5C 746.5,78.5 741.5,78.5 736.5,78.5C 736.667,105.169 736.5,131.835 736,158.5C 734.812,157.437 734.312,156.103 734.5,154.5C 735.167,154.5 735.5,154.167 735.5,153.5C 735.5,131.5 735.5,109.5 735.5,87.5C 734.931,83.6707 735.598,80.3373 737.5,77.5 Z"/></g>
<g><path style="opacity:0.388" fill="#474747" d="M 604.5,95.5 C 607.01,95.0535 609.01,95.7202 610.5,97.5C 608.302,97.1249 606.302,96.4582 604.5,95.5 Z"/></g>
<g><path style="opacity:0.153" fill="#272727" d="M 700.5,95.5 C 701.906,95.9731 702.573,96.9731 702.5,98.5C 701.094,98.0269 700.427,97.0269 700.5,95.5 Z"/></g>
<g><path style="opacity:0.145" fill="#222222" d="M 368.5,96.5 C 369.906,96.9731 370.573,97.9731 370.5,99.5C 369.094,99.0269 368.427,98.0269 368.5,96.5 Z"/></g>
<g><path style="opacity:0.239" fill="#373737" d="M 610.5,97.5 C 612.027,97.427 613.027,98.0937 613.5,99.5C 611.973,99.573 610.973,98.9063 610.5,97.5 Z"/></g>
<g><path style="opacity:0.165" fill="#313131" d="M 633.5,93.5 C 635.914,94.9108 637.581,96.9108 638.5,99.5C 636.086,98.0892 634.419,96.0892 633.5,93.5 Z"/></g>
<g><path style="opacity:0.094" fill="#1f1f1f" d="M 416.5,77.5 C 416.5,77.8333 416.5,78.1667 416.5,78.5C 407.011,93.4718 397.511,108.472 388,123.5C 385.851,124.84 384.684,124.173 384.5,121.5C 386.39,121.703 387.89,121.037 389,119.5C 397.482,104.82 406.648,90.8202 416.5,77.5 Z"/></g>
<g><path style="opacity:0.255" fill="#2e2e2e" d="M 613.5,99.5 C 615.404,99.7376 616.738,100.738 617.5,102.5C 615.596,102.262 614.262,101.262 613.5,99.5 Z"/></g>
<g><path style="opacity:0.067" fill="#1e1e1e" d="M 702.5,98.5 C 704.588,100.336 705.921,102.669 706.5,105.5C 704.412,103.664 703.079,101.331 702.5,98.5 Z"/></g>
<g><path style="opacity:0.149" fill="#272727" d="M 638.5,99.5 C 639.906,99.9731 640.573,100.973 640.5,102.5C 639.094,102.027 638.427,101.027 638.5,99.5 Z"/></g>
<g><path style="opacity:0.17" fill="#303030" d="M 453.5,77.5 C 453.5,77.8333 453.5,78.1667 453.5,78.5C 452.167,113.5 452.167,148.5 453.5,183.5C 475.663,184.663 497.996,184.83 520.5,184C 521.467,179.599 521.8,175.099 521.5,170.5C 521.5,170.167 521.5,169.833 521.5,169.5C 523.965,174.534 523.965,179.701 521.5,185C 498.261,185.827 475.094,185.66 452,184.5C 451.219,183.271 450.719,181.938 450.5,180.5C 451.826,147.84 451.826,115.173 450.5,82.5C 450.265,79.9524 451.265,78.2858 453.5,77.5 Z"/></g>
<g><path style="opacity:0.086" fill="#1f1f1f" d="M 640.5,102.5 C 642.539,103.911 643.539,105.911 643.5,108.5C 641.992,106.819 640.992,104.819 640.5,102.5 Z"/></g>
<g><path style="opacity:0.883" fill="#d0d0d0" d="M 689.5,105.5 C 687.836,131.317 686.836,157.317 686.5,183.5C 686.5,157.167 686.5,130.833 686.5,104.5C 687.791,104.263 688.791,104.596 689.5,105.5 Z"/></g>
<g><path style="opacity:0.141" fill="#2b2b2b" d="M 433.5,81.5 C 433.833,81.5 434.167,81.5 434.5,81.5C 422.022,101.778 409.522,122.111 397,142.5C 396.831,156.339 396.331,170.006 395.5,183.5C 395.5,169.833 395.5,156.167 395.5,142.5C 407.905,122.027 420.572,101.693 433.5,81.5 Z"/></g>
<g><path style="opacity:0.051" fill="#1e1e1e" d="M 370.5,99.5 C 373.579,102.65 375.913,106.317 377.5,110.5C 374.421,107.35 372.087,103.683 370.5,99.5 Z"/></g>
<g><path style="opacity:0.008" fill="#313131" d="M 570.5,101.5 C 564.43,107.881 560.097,115.214 557.5,123.5C 557.167,123.5 556.833,123.5 556.5,123.5C 557.841,116.826 560.674,110.826 565,105.5C 566.451,103.536 568.284,102.203 570.5,101.5 Z"/></g>
<g><path style="opacity:0.012" fill="#000000" d="M 689.5,107.5 C 689.557,108.609 689.89,109.609 690.5,110.5C 689.833,134.833 689.167,159.167 688.5,183.5C 688.169,157.995 688.502,132.661 689.5,107.5 Z"/></g>
<g><path style="opacity:0.114" fill="#1d1d1d" d="M 707.5,107.5 C 708.906,107.973 709.573,108.973 709.5,110.5C 708.094,110.027 707.427,109.027 707.5,107.5 Z"/></g>
<g><path style="opacity:0.302" fill="#575757" d="M 617.5,102.5 C 622.943,106.128 626.776,111.128 629,117.5C 631.582,124.816 632.082,132.149 630.5,139.5C 630.818,134.968 630.485,130.634 629.5,126.5C 628.269,117.371 624.269,109.371 617.5,102.5 Z"/></g>
<g><path style="opacity:0.09" fill="#181818" d="M 377.5,110.5 C 378.906,110.973 379.573,111.973 379.5,113.5C 378.094,113.027 377.427,112.027 377.5,110.5 Z"/></g>
<g><path style="opacity:0.271" fill="#252525" d="M 174.5,114.5 C 165.472,114.32 156.472,114.653 147.5,115.5C 156.435,112.374 165.435,112.04 174.5,114.5 Z"/></g>
<g><path style="opacity:0.514" fill="#404040" d="M 546.5,102.5 C 544.184,108.754 542.017,115.088 540,121.5C 539.501,126.489 539.334,131.489 539.5,136.5C 538.518,133.038 538.185,129.371 538.5,125.5C 539.066,119.295 540.566,113.295 543,107.5C 543.697,105.416 544.864,103.749 546.5,102.5 Z"/></g>
<g><path style="opacity:0.086" fill="#1f1f1f" d="M 710.5,112.5 C 712.25,113.659 713.25,115.326 713.5,117.5C 711.75,116.341 710.75,114.674 710.5,112.5 Z"/></g>
<g><path style="opacity:1" fill="#f1f1f1" d="M 174.5,114.5 C 174.833,114.5 175.167,114.5 175.5,114.5C 180.255,116.325 185.255,117.658 190.5,118.5C 196.433,121.803 202.433,125.137 208.5,128.5C 209.833,130.5 211.5,132.167 213.5,133.5C 213.427,135.027 214.094,136.027 215.5,136.5C 215.084,141.493 214.751,146.493 214.5,151.5C 213.833,153.5 213.167,155.5 212.5,157.5C 211.167,159.5 209.5,161.167 207.5,162.5C 198.825,167.503 190.159,172.503 181.5,177.5C 177.642,177.77 174.309,179.103 171.5,181.5C 170.791,182.404 169.791,182.737 168.5,182.5C 161.906,183.818 155.24,184.485 148.5,184.5C 148.167,184.5 147.833,184.5 147.5,184.5C 139.322,183.082 130.988,181.749 122.5,180.5C 121.584,180.543 120.917,180.876 120.5,181.5C 119.391,181.557 118.391,181.89 117.5,182.5C 112.364,182.708 107.364,182.041 102.5,180.5C 101.167,180.5 99.8333,180.5 98.5,180.5C 97.2067,179.842 95.7067,179.508 94,179.5C 89.2397,178.926 87.2397,180.926 88,185.5C 89.0391,186.71 90.2058,187.71 91.5,188.5C 91.6107,189.117 91.944,189.617 92.5,190C 95.2066,190.395 97.8733,190.895 100.5,191.5C 111.371,192.209 122.371,192.876 133.5,193.5C 135.784,193.975 137.784,194.975 139.5,196.5C 141.184,199.718 140.517,202.385 137.5,204.5C 130.706,207.612 123.706,209.612 116.5,210.5C 116.167,210.5 115.833,210.5 115.5,210.5C 112.833,210.5 110.167,210.5 107.5,210.5C 103.818,210.335 100.152,210.501 96.5,211C 95.7231,213.628 94.7231,216.128 93.5,218.5C 91.6854,219.63 89.6854,220.296 87.5,220.5C 82.8333,220.5 78.1667,220.5 73.5,220.5C 72.6993,218.958 72.366,217.292 72.5,215.5C 69.1667,215.5 65.8333,215.5 62.5,215.5C 60.9257,211.31 60.4257,206.977 61,202.5C 64.7454,201.703 68.5787,201.203 72.5,201C 73.0442,200.283 73.7109,199.783 74.5,199.5C 78.8333,199.5 83.1667,199.5 87.5,199.5C 89.099,199.232 90.4324,199.566 91.5,200.5C 92.5,202.167 93.8333,203.5 95.5,204.5C 95.5,205.5 95.5,206.5 95.5,207.5C 97.1667,207.5 98.8333,207.5 100.5,207.5C 107.826,207.871 114.826,206.871 121.5,204.5C 125.979,204.464 130.312,203.631 134.5,202C 135.38,200.644 135.714,199.144 135.5,197.5C 134.5,197.5 133.5,197.5 132.5,197.5C 131.737,196.732 130.737,196.232 129.5,196C 120.84,195.5 112.173,195.334 103.5,195.5C 99.8019,195.448 96.1352,195.114 92.5,194.5C 88.9315,192.77 86.0982,190.103 84,186.5C 82.8318,181.293 84.6651,177.793 89.5,176C 94.2041,175.352 98.8708,175.519 103.5,176.5C 104.635,178.213 106.302,178.88 108.5,178.5C 110.364,179.793 112.364,179.793 114.5,178.5C 113.15,177.05 111.484,176.383 109.5,176.5C 108.041,176.567 106.708,176.234 105.5,175.5C 104.833,175.5 104.167,175.5 103.5,175.5C 103.5,175.167 103.5,174.833 103.5,174.5C 98.2121,167.752 97.3788,160.419 101,152.5C 107.622,141.718 115.789,132.385 125.5,124.5C 127.284,124.107 128.95,123.441 130.5,122.5C 132.819,122.008 134.819,121.008 136.5,119.5C 140.242,118.163 143.909,116.829 147.5,115.5C 156.472,114.653 165.472,114.32 174.5,114.5 Z M 160.5,118.5 C 161.5,118.5 162.5,118.5 163.5,118.5C 169.015,120.336 174.682,121.003 180.5,120.5C 182.515,121.924 184.848,122.59 187.5,122.5C 187.833,122.5 188.167,122.5 188.5,122.5C 188.783,123.289 189.283,123.956 190,124.5C 190.986,123.829 192.153,123.829 193.5,124.5C 196.008,126.924 199.008,128.59 202.5,129.5C 204.248,131.16 204.748,133.16 204,135.5C 201.436,137.624 198.603,138.958 195.5,139.5C 190.139,138.555 184.805,138.555 179.5,139.5C 173.884,136.222 167.551,133.555 160.5,131.5C 153.316,128.807 145.983,127.807 138.5,128.5C 137.833,128.5 137.167,128.5 136.5,128.5C 137.301,126.958 137.634,125.292 137.5,123.5C 142.646,122.299 147.646,120.965 152.5,119.5C 152.833,119.5 153.167,119.5 153.5,119.5C 155.953,120.645 158.287,120.312 160.5,118.5 Z M 132.5,126.5 C 132.833,127.167 133.167,127.833 133.5,128.5C 131.585,128.784 129.919,128.451 128.5,127.5C 129.959,127.567 131.292,127.234 132.5,126.5 Z M 127.5,134.5 C 130.5,133.167 133.5,133.167 136.5,134.5C 135.609,135.11 134.609,135.443 133.5,135.5C 131.735,134.539 129.735,134.205 127.5,134.5 Z M 127.5,134.5 C 127.328,135.492 127.662,136.158 128.5,136.5C 128.5,136.833 128.5,137.167 128.5,137.5C 124.28,137.427 121.946,139.427 121.5,143.5C 119.615,145.795 119.115,148.462 120,151.5C 121.678,153.553 123.511,153.887 125.5,152.5C 126.5,152.5 127.5,152.5 128.5,152.5C 127.833,153.167 127.167,153.833 126.5,154.5C 123.607,154.031 121.607,155.031 120.5,157.5C 119.313,159.072 118.313,160.739 117.5,162.5C 117.389,161.883 117.056,161.383 116.5,161C 113.964,160.661 111.464,160.161 109,159.5C 106.969,160.435 105.136,159.935 103.5,158C 107.022,151.668 110.689,145.502 114.5,139.5C 115.5,139.167 116.167,138.5 116.5,137.5C 117.5,137.167 118.167,136.5 118.5,135.5C 121.43,134.701 124.43,134.368 127.5,134.5 Z M 149.5,134.5 C 150.5,134.5 151.5,134.5 152.5,134.5C 153.705,136.138 155.038,136.471 156.5,135.5C 158.042,136.301 159.708,136.634 161.5,136.5C 164.614,138.542 167.948,140.209 171.5,141.5C 168.479,143.854 165.812,146.521 163.5,149.5C 161.821,151 160.488,152.833 159.5,155C 159.728,155.399 160.062,155.565 160.5,155.5C 160.5,155.833 160.5,156.167 160.5,156.5C 158.952,156.821 158.285,157.821 158.5,159.5C 157.5,160.833 156.5,162.167 155.5,163.5C 149.948,165.022 144.282,165.689 138.5,165.5C 134.382,164.291 130.049,163.624 125.5,163.5C 128.002,161.61 128.002,159.61 125.5,157.5C 131.49,158.5 135.49,156.166 137.5,150.5C 138.404,149.791 138.737,148.791 138.5,147.5C 139.267,146.828 139.934,145.995 140.5,145C 139.833,142.667 139.167,140.333 138.5,138C 139.416,137.722 140.082,137.222 140.5,136.5C 141.289,136.217 141.956,135.717 142.5,135C 145.127,134.731 147.46,134.564 149.5,134.5 Z M 210.5,136.5 C 210.993,138.806 211.326,141.139 211.5,143.5C 209.983,143.511 208.816,144.177 208,145.5C 206.175,144.897 204.341,144.23 202.5,143.5C 203.77,142.712 204.77,141.712 205.5,140.5C 207.027,140.573 208.027,139.906 208.5,138.5C 209.167,137.833 209.833,137.167 210.5,136.5 Z M 135.5,139.5 C 135.244,142.598 134.578,145.598 133.5,148.5C 133.167,148.5 132.833,148.5 132.5,148.5C 132.5,147.167 132.5,145.833 132.5,144.5C 133.309,142.708 133.809,140.708 134,138.5C 134.383,139.056 134.883,139.389 135.5,139.5 Z M 198.5,144.5 C 199.386,143.224 200.386,143.224 201.5,144.5C 200.767,145.087 199.767,145.087 198.5,144.5 Z M 198.5,144.5 C 193.934,145.976 189.267,146.976 184.5,147.5C 183.209,147.737 182.209,147.404 181.5,146.5C 180.957,146.44 180.624,146.107 180.5,145.5C 182,145.167 183.5,144.833 185,144.5C 189.357,144.994 193.857,144.994 198.5,144.5 Z M 175.5,151.5 C 171.98,152.353 169.313,154.353 167.5,157.5C 166.833,157.5 166.5,157.833 166.5,158.5C 166.167,158.5 165.833,158.5 165.5,158.5C 165.957,155.594 166.957,152.928 168.5,150.5C 169.167,150.5 169.5,150.167 169.5,149.5C 171.426,148.758 173.259,147.758 175,146.5C 175.494,148.134 175.66,149.801 175.5,151.5 Z M 110.5,165.5 C 111.263,166.268 112.263,166.768 113.5,167C 112.906,167.464 112.239,167.631 111.5,167.5C 110.833,167.5 110.167,167.5 109.5,167.5C 103.985,164.742 104.318,164.076 110.5,165.5 Z M 160.5,169.5 C 158.83,169.751 157.33,170.418 156,171.5C 151.045,171.398 145.878,171.398 140.5,171.5C 133.953,171.558 127.619,170.558 121.5,168.5C 121.667,168.167 121.833,167.833 122,167.5C 123.699,168.406 125.533,168.739 127.5,168.5C 132.423,169.954 137.589,170.621 143,170.5C 146.352,170.498 149.518,170.165 152.5,169.5C 155.769,169.116 158.603,167.782 161,165.5C 161.195,166.819 161.028,168.153 160.5,169.5 Z"/></g>
<g><path style="opacity:0.208" fill="#353535" d="M 190.5,118.5 C 185.255,117.658 180.255,116.325 175.5,114.5C 175.435,114.062 175.601,113.728 176,113.5C 181.058,114.798 185.892,116.465 190.5,118.5 Z"/></g>
<g><path style="opacity:0.004" fill="#1c1c1c" d="M 147.5,115.5 C 143.909,116.829 140.242,118.163 136.5,119.5C 135.833,119.5 135.167,119.5 134.5,119.5C 138.337,116.922 142.67,115.588 147.5,115.5 Z"/></g>
<g><path style="opacity:0.443" fill="#363636" d="M 643.5,108.5 C 644.117,108.611 644.617,108.944 645,109.5C 646.31,113.07 647.143,116.737 647.5,120.5C 647.167,120.5 646.833,120.5 646.5,120.5C 645.5,116.501 644.5,112.501 643.5,108.5 Z"/></g>
<g><path style="opacity:0.537" fill="#898989" d="M 173.5,118.5 C 170.167,118.5 166.833,118.5 163.5,118.5C 162.5,118.5 161.5,118.5 160.5,118.5C 158.097,118.448 155.764,118.781 153.5,119.5C 153.167,119.5 152.833,119.5 152.5,119.5C 150.833,119.5 149.167,119.5 147.5,119.5C 152.59,118.035 157.923,117.368 163.5,117.5C 167.018,117.502 170.351,117.835 173.5,118.5 Z"/></g>
<g><path style="opacity:0.025" fill="#181818" d="M 380.5,115.5 C 382.822,116.802 384.155,118.802 384.5,121.5C 382.674,119.853 381.34,117.853 380.5,115.5 Z"/></g>
<g><path style="opacity:0.18" fill="#292929" d="M 338.5,80.5 C 351.309,100.769 364.142,121.102 377,141.5C 377.5,155.496 377.667,169.496 377.5,183.5C 376.669,170.006 376.169,156.339 376,142.5C 363.239,122.64 350.739,102.64 338.5,82.5C 338.5,81.8333 338.5,81.1667 338.5,80.5 Z"/></g>
<g><path style="opacity:0.004" fill="#0a0a0a" d="M 160.5,118.5 C 158.287,120.312 155.953,120.645 153.5,119.5C 155.764,118.781 158.097,118.448 160.5,118.5 Z"/></g>
<g><path style="opacity:0.322" fill="#3d3d3d" d="M 163.5,118.5 C 166.833,118.5 170.167,118.5 173.5,118.5C 175.527,118.338 177.527,118.505 179.5,119C 180.056,119.383 180.389,119.883 180.5,120.5C 174.682,121.003 169.015,120.336 163.5,118.5 Z"/></g>
<g><path style="opacity:0.624" fill="#616161" d="M 134.5,119.5 C 135.167,119.5 135.833,119.5 136.5,119.5C 134.819,121.008 132.819,122.008 130.5,122.5C 130.5,122.167 130.5,121.833 130.5,121.5C 131.514,120.326 132.847,119.66 134.5,119.5 Z"/></g>
<g><path style="opacity:0.068" fill="#161616" d="M 321.5,93.5 C 305.008,94.4965 288.342,94.8298 271.5,94.5C 271.5,103.167 271.5,111.833 271.5,120.5C 287.009,120.17 302.342,120.504 317.5,121.5C 301.833,121.5 286.167,121.5 270.5,121.5C 270.5,112.167 270.5,102.833 270.5,93.5C 287.5,93.5 304.5,93.5 321.5,93.5 Z"/></g>
<g><path style="opacity:0.039" fill="#2b2b2b" d="M 180.5,120.5 C 183.228,120.171 185.562,120.837 187.5,122.5C 184.848,122.59 182.515,121.924 180.5,120.5 Z"/></g>
<g><path style="opacity:0.55" fill="#868686" d="M 321.5,92.5 C 321.5,92.8333 321.5,93.1667 321.5,93.5C 304.5,93.5 287.5,93.5 270.5,93.5C 270.5,102.833 270.5,112.167 270.5,121.5C 286.167,121.5 301.833,121.5 317.5,121.5C 317.5,121.833 317.5,122.167 317.5,122.5C 301.5,122.5 285.5,122.5 269.5,122.5C 269.5,112.5 269.5,102.5 269.5,92.5C 286.833,92.5 304.167,92.5 321.5,92.5 Z"/></g>
<g><path style="opacity:0.082" fill="#212121" d="M 714.5,119.5 C 716.25,120.659 717.25,122.326 717.5,124.5C 715.75,123.341 714.75,121.674 714.5,119.5 Z"/></g>
<g><path style="opacity:0.055" fill="#191919" d="M 130.5,121.5 C 130.5,121.833 130.5,122.167 130.5,122.5C 128.95,123.441 127.284,124.107 125.5,124.5C 126.659,122.75 128.326,121.75 130.5,121.5 Z"/></g>
<g><path style="opacity:0.071" fill="#2c2c2c" d="M 147.5,119.5 C 149.167,119.5 150.833,119.5 152.5,119.5C 147.646,120.965 142.646,122.299 137.5,123.5C 136.833,123.5 136.167,123.5 135.5,123.5C 139.357,121.992 143.357,120.659 147.5,119.5 Z"/></g>
<g><path style="opacity:0.584" fill="#535353" d="M 188.5,122.5 C 190.698,122.12 192.365,122.787 193.5,124.5C 192.153,123.829 190.986,123.829 190,124.5C 189.283,123.956 188.783,123.289 188.5,122.5 Z"/></g>
<g><path style="opacity:0.01" fill="#030303" d="M 135.5,123.5 C 136.167,123.5 136.833,123.5 137.5,123.5C 137.634,125.292 137.301,126.958 136.5,128.5C 135.5,128.5 134.5,128.5 133.5,128.5C 133.167,127.833 132.833,127.167 132.5,126.5C 133.492,126.672 134.158,126.338 134.5,125.5C 135.167,125.5 135.5,125.167 135.5,124.5C 135.5,124.167 135.5,123.833 135.5,123.5 Z"/></g>
<g><path style="opacity:0.325" fill="#4b4b4b" d="M 190.5,118.5 C 197.788,119.804 203.788,123.137 208.5,128.5C 202.433,125.137 196.433,121.803 190.5,118.5 Z"/></g>
<g><path style="opacity:0.295" fill="#424242" d="M 317.5,122.5 C 317.5,122.167 317.5,121.833 317.5,121.5C 318.809,123.571 319.475,126.071 319.5,129C 319.497,131.69 319.164,134.19 318.5,136.5C 318.819,131.637 318.486,126.97 317.5,122.5 Z"/></g>
<g><path style="opacity:0.329" fill="#3f3f3f" d="M 689.5,107.5 C 696.922,118.67 703.589,130.337 709.5,142.5C 702.666,132.172 696.333,121.505 690.5,110.5C 689.89,109.609 689.557,108.609 689.5,107.5 Z"/></g>
<g><path style="opacity:0.322" fill="#505050" d="M 135.5,123.5 C 135.5,123.833 135.5,124.167 135.5,124.5C 134.833,124.5 134.5,124.833 134.5,125.5C 133.508,125.328 132.842,125.662 132.5,126.5C 131.292,127.234 129.959,127.567 128.5,127.5C 130.336,125.412 132.669,124.079 135.5,123.5 Z"/></g>
<g><path style="opacity:0.071" fill="#1e1e1e" d="M 193.5,124.5 C 196.992,125.41 199.992,127.076 202.5,129.5C 199.008,128.59 196.008,126.924 193.5,124.5 Z"/></g>
<g><path style="opacity:0.017" fill="#0f0f0f" d="M 629.5,126.5 C 630.485,130.634 630.818,134.968 630.5,139.5C 630.167,139.5 629.833,139.5 629.5,139.5C 629.393,135.476 629.393,131.143 629.5,126.5 Z"/></g>
<g><path style="opacity:0.332" fill="#4e4e4e" d="M 128.5,127.5 C 129.919,128.451 131.585,128.784 133.5,128.5C 134.5,128.5 135.5,128.5 136.5,128.5C 137.167,128.5 137.833,128.5 138.5,128.5C 140.099,128.232 141.432,128.566 142.5,129.5C 136.974,129.821 131.64,129.488 126.5,128.5C 126.842,127.662 127.508,127.328 128.5,127.5 Z"/></g>
<g><path style="opacity:0.017" fill="#121212" d="M 138.5,128.5 C 145.983,127.807 153.316,128.807 160.5,131.5C 159.5,131.5 158.5,131.5 157.5,131.5C 154.873,130.908 152.206,130.575 149.5,130.5C 147.393,129.532 145.059,129.198 142.5,129.5C 141.432,128.566 140.099,128.232 138.5,128.5 Z"/></g>
<g><path style="opacity:0.047" fill="#3c3c3c" d="M 208.5,128.5 C 211.167,129.167 212.833,130.833 213.5,133.5C 211.5,132.167 209.833,130.5 208.5,128.5 Z"/></g>
<g><path style="opacity:0.09" fill="#1b1b1b" d="M 718.5,126.5 C 719.906,126.973 720.573,127.973 720.5,129.5C 719.833,129.167 719.167,128.833 718.5,128.5C 718.5,127.833 718.5,127.167 718.5,126.5 Z"/></g>
<g><path style="opacity:0.852" fill="#c0c0c0" d="M 126.5,128.5 C 131.64,129.488 136.974,129.821 142.5,129.5C 145.059,129.198 147.393,129.532 149.5,130.5C 141.472,130.831 133.472,130.498 125.5,129.5C 125.624,128.893 125.957,128.56 126.5,128.5 Z"/></g>
<g><path style="opacity:0.038" fill="#323232" d="M 556.5,123.5 C 556.833,123.5 557.167,123.5 557.5,123.5C 557.336,130.202 557.669,136.869 558.5,143.5C 555.542,137.035 554.875,130.368 556.5,123.5 Z"/></g>
<g><path style="opacity:0.473" fill="#444444" d="M 646.5,120.5 C 646.833,120.5 647.167,120.5 647.5,120.5C 650.167,128.167 650.167,135.833 647.5,143.5C 647.5,141.5 647.5,139.5 647.5,137.5C 647.625,131.797 647.292,126.13 646.5,120.5 Z"/></g>
<g><path style="opacity:0.659" fill="#737373" d="M 718.5,128.5 C 719.167,128.833 719.833,129.167 720.5,129.5C 721.338,129.842 721.672,130.508 721.5,131.5C 719.5,131.5 718.5,130.5 718.5,128.5 Z"/></g>
<g><path style="opacity:0.224" fill="#383838" d="M 136.5,134.5 C 133.5,133.167 130.5,133.167 127.5,134.5C 124.43,134.368 121.43,134.701 118.5,135.5C 118.97,134.307 119.97,133.64 121.5,133.5C 126.842,132.319 132.175,132.319 137.5,133.5C 137.376,134.107 137.043,134.44 136.5,134.5 Z"/></g>
<g><path style="opacity:0.048" fill="#202020" d="M 142.5,133.5 C 145.059,133.198 147.393,133.532 149.5,134.5C 147.46,134.564 145.127,134.731 142.5,135C 141.956,135.717 141.289,136.217 140.5,136.5C 140.427,134.973 141.094,133.973 142.5,133.5 Z"/></g>
<g><path style="opacity:0.522" fill="#838383" d="M 142.5,133.5 C 144.966,132.366 147.633,132.199 150.5,133C 154.614,133.115 158.281,134.282 161.5,136.5C 159.708,136.634 158.042,136.301 156.5,135.5C 155.292,134.766 153.959,134.433 152.5,134.5C 151.5,134.5 150.5,134.5 149.5,134.5C 147.393,133.532 145.059,133.198 142.5,133.5 Z"/></g>
<g><path style="opacity:0.007" fill="#212121" d="M 127.5,134.5 C 129.735,134.205 131.735,134.539 133.5,135.5C 134.609,135.443 135.609,135.11 136.5,134.5C 137.183,136.176 138.517,136.843 140.5,136.5C 140.082,137.222 139.416,137.722 138.5,138C 139.167,140.333 139.833,142.667 140.5,145C 139.934,145.995 139.267,146.828 138.5,147.5C 138.736,144.391 138.403,141.391 137.5,138.5C 136.377,137.243 135.711,137.576 135.5,139.5C 134.883,139.389 134.383,139.056 134,138.5C 133.809,140.708 133.309,142.708 132.5,144.5C 132.795,142.265 132.461,140.265 131.5,138.5C 130.791,137.596 129.791,137.263 128.5,137.5C 128.5,137.167 128.5,136.833 128.5,136.5C 127.662,136.158 127.328,135.492 127.5,134.5 Z"/></g>
<g><path style="opacity:0.141" fill="#393939" d="M 118.5,135.5 C 118.167,136.5 117.5,137.167 116.5,137.5C 116.5,136.167 117.167,135.5 118.5,135.5 Z"/></g>
<g><path style="opacity:0.004" fill="#0d0d0d" d="M 152.5,134.5 C 153.959,134.433 155.292,134.766 156.5,135.5C 155.038,136.471 153.705,136.138 152.5,134.5 Z"/></g>
<g><path style="opacity:0.022" fill="#1b1b1b" d="M 209.5,134.5 C 210.338,134.842 210.672,135.508 210.5,136.5C 209.833,137.167 209.167,137.833 208.5,138.5C 208.232,136.901 208.566,135.568 209.5,134.5 Z"/></g>
<g><path style="opacity:0.38" fill="#555555" d="M 213.5,133.5 C 214.906,133.973 215.573,134.973 215.5,136.5C 214.094,136.027 213.427,135.027 213.5,133.5 Z"/></g>
<g><path style="opacity:0.106" fill="#232323" d="M 722.5,133.5 C 724.25,134.659 725.25,136.326 725.5,138.5C 723.75,137.341 722.75,135.674 722.5,133.5 Z"/></g>
<g><path style="opacity:0.686" fill="#595959" d="M 161.5,136.5 C 165.684,136.592 169.017,138.259 171.5,141.5C 167.948,140.209 164.614,138.542 161.5,136.5 Z"/></g>
<g><path style="opacity:0.516" fill="#7c7c7c" d="M 318.5,136.5 C 318.158,137.338 317.492,137.672 316.5,137.5C 301.167,137.5 285.833,137.5 270.5,137.5C 270.5,147.833 270.5,158.167 270.5,168.5C 270.5,168.833 270.5,169.167 270.5,169.5C 269.505,158.679 269.172,147.679 269.5,136.5C 285.833,136.5 302.167,136.5 318.5,136.5 Z"/></g>
<g><path style="opacity:0.216" fill="#3a3a3a" d="M 157.5,131.5 C 158.5,131.5 159.5,131.5 160.5,131.5C 167.551,133.555 173.884,136.222 179.5,139.5C 178.292,140.234 176.959,140.567 175.5,140.5C 174.426,139.115 173.093,137.949 171.5,137C 166.683,135.234 162.017,133.401 157.5,131.5 Z"/></g>
<g><path style="opacity:0.365" fill="#525252" d="M 689.5,105.5 C 689.5,106.167 689.5,106.833 689.5,107.5C 688.502,132.661 688.169,157.995 688.5,183.5C 688.389,184.117 688.056,184.617 687.5,185C 681.984,185.817 676.65,185.651 671.5,184.5C 676.695,184.821 681.695,184.487 686.5,183.5C 686.836,157.317 687.836,131.317 689.5,105.5 Z"/></g>
<g><path style="opacity:1" fill="#f1f1f1" d="M 131.5,138.5 C 132.461,140.265 132.795,142.265 132.5,144.5C 130.883,147.784 128.55,150.451 125.5,152.5C 124.178,152.67 123.011,152.337 122,151.5C 121.503,148.854 121.336,146.187 121.5,143.5C 123.296,142.207 124.963,140.707 126.5,139C 128.134,138.506 129.801,138.34 131.5,138.5 Z"/></g>
<g><path style="opacity:1" fill="#d6d6d6" d="M 137.5,138.5 C 138.403,141.391 138.736,144.391 138.5,147.5C 138.737,148.791 138.404,149.791 137.5,150.5C 135.329,152.5 132.996,154.334 130.5,156C 128.833,156.667 127.167,156.667 125.5,156C 126.056,155.617 126.389,155.117 126.5,154.5C 130.055,153.946 132.388,151.946 133.5,148.5C 134.79,147.942 135.623,146.942 136,145.5C 136.186,142.964 136.686,140.631 137.5,138.5 Z"/></g>
<g><path style="opacity:0.376" fill="#494949" d="M 202.5,129.5 C 204.404,129.738 205.738,130.738 206.5,132.5C 208.027,132.427 209.027,133.094 209.5,134.5C 208.566,135.568 208.232,136.901 208.5,138.5C 208.027,139.906 207.027,140.573 205.5,140.5C 207.319,139.064 207.652,137.397 206.5,135.5C 204.6,137.616 202.267,138.949 199.5,139.5C 198.167,139.5 196.833,139.5 195.5,139.5C 198.603,138.958 201.436,137.624 204,135.5C 204.748,133.16 204.248,131.16 202.5,129.5 Z"/></g>
<g><path style="opacity:0.02" fill="#0b0b0b" d="M 316.5,137.5 C 301.676,138.496 286.676,138.829 271.5,138.5C 271.5,148.167 271.5,157.833 271.5,167.5C 274.713,167.19 277.713,167.523 280.5,168.5C 277.167,168.5 273.833,168.5 270.5,168.5C 270.5,158.167 270.5,147.833 270.5,137.5C 285.833,137.5 301.167,137.5 316.5,137.5 Z"/></g>
<g><path style="opacity:0.506" fill="#707070" d="M 195.5,139.5 C 196.833,139.5 198.167,139.5 199.5,139.5C 192.317,140.232 184.984,140.898 177.5,141.5C 176.584,141.457 175.917,141.124 175.5,140.5C 176.959,140.567 178.292,140.234 179.5,139.5C 184.805,138.555 190.139,138.555 195.5,139.5 Z"/></g>
<g><path style="opacity:0.455" fill="#545454" d="M 215.5,136.5 C 217.984,139.329 217.984,142.329 215.5,145.5C 216.819,147.532 216.819,149.532 215.5,151.5C 215.167,151.5 214.833,151.5 214.5,151.5C 214.751,146.493 215.084,141.493 215.5,136.5 Z"/></g>
<g><path style="opacity:0.039" fill="#1e1e1e" d="M 538.5,125.5 C 538.185,129.371 538.518,133.038 539.5,136.5C 540.167,140.833 540.833,145.167 541.5,149.5C 539.426,145.89 538.259,141.89 538,137.5C 537.188,133.311 537.355,129.311 538.5,125.5 Z"/></g>
<g><path style="opacity:0.082" fill="#383838" d="M 128.5,137.5 C 129.791,137.263 130.791,137.596 131.5,138.5C 129.801,138.34 128.134,138.506 126.5,139C 124.963,140.707 123.296,142.207 121.5,143.5C 121.946,139.427 124.28,137.427 128.5,137.5 Z"/></g>
<g><path style="opacity:0.561" fill="#888888" d="M 137.5,138.5 C 136.686,140.631 136.186,142.964 136,145.5C 135.623,146.942 134.79,147.942 133.5,148.5C 134.578,145.598 135.244,142.598 135.5,139.5C 135.711,137.576 136.377,137.243 137.5,138.5 Z"/></g>
<g><path style="opacity:0.122" fill="#363636" d="M 210.5,136.5 C 211.993,137.312 212.66,138.645 212.5,140.5C 212.48,141.726 212.147,142.726 211.5,143.5C 211.326,141.139 210.993,138.806 210.5,136.5 Z"/></g>
<g><path style="opacity:0.067" fill="#1c1c1c" d="M 725.5,138.5 C 727.25,139.659 728.25,141.326 728.5,143.5C 726.75,142.341 725.75,140.674 725.5,138.5 Z"/></g>
<g><path style="opacity:0.012" fill="#222222" d="M 205.5,140.5 C 204.77,141.712 203.77,142.712 202.5,143.5C 204.341,144.23 206.175,144.897 208,145.5C 208.816,144.177 209.983,143.511 211.5,143.5C 211.047,144.458 210.381,145.292 209.5,146C 201.213,147.238 192.88,147.738 184.5,147.5C 184.158,148.338 183.492,148.672 182.5,148.5C 181.391,148.443 180.391,148.11 179.5,147.5C 179.5,146.167 179.5,144.833 179.5,143.5C 188.412,144.136 197.079,143.136 205.5,140.5 Z M 198.5,144.5 C 199.767,145.087 200.767,145.087 201.5,144.5C 200.386,143.224 199.386,143.224 198.5,144.5 Z M 198.5,144.5 C 193.934,145.976 189.267,146.976 184.5,147.5C 183.209,147.737 182.209,147.404 181.5,146.5C 180.957,146.44 180.624,146.107 180.5,145.5C 182,145.167 183.5,144.833 185,144.5C 189.357,144.994 193.857,144.994 198.5,144.5 Z"/></g>
<g><path style="opacity:0.42" fill="#3f3f3f" d="M 629.5,140.5 C 629.364,145.267 627.697,149.267 624.5,152.5C 626.186,148.424 627.853,144.424 629.5,140.5 Z"/></g>
<g><path style="opacity:0.71" fill="#6f6f6f" d="M 171.5,141.5 C 172.043,141.56 172.376,141.893 172.5,142.5C 169.084,145.249 166.084,148.249 163.5,151.5C 163.5,150.833 163.5,150.167 163.5,149.5C 165.812,146.521 168.479,143.854 171.5,141.5 Z"/></g>
<g><path style="opacity:0.016" fill="#131313" d="M 558.5,143.5 C 559.931,144.78 560.598,146.447 560.5,148.5C 559.069,147.22 558.402,145.553 558.5,143.5 Z"/></g>
<g><path style="opacity:0.384" fill="#707070" d="M 647.5,137.5 C 647.5,139.5 647.5,141.5 647.5,143.5C 647.567,144.959 647.234,146.292 646.5,147.5C 646.167,147.5 645.833,147.5 645.5,147.5C 645.753,143.96 646.419,140.627 647.5,137.5 Z"/></g>
<g><path style="opacity:0.008" fill="#363636" d="M 175.5,151.5 C 175.66,149.801 175.494,148.134 175,146.5C 173.259,147.758 171.426,148.758 169.5,149.5C 171.052,146.888 173.386,145.555 176.5,145.5C 176.795,147.735 176.461,149.735 175.5,151.5 Z"/></g>
<g><path style="opacity:0.518" fill="#818181" d="M 179.5,147.5 C 180.391,148.11 181.391,148.443 182.5,148.5C 181.053,149.885 180.053,149.552 179.5,147.5 Z"/></g>
<g><path style="opacity:0.016" fill="#2a2a2a" d="M 121.5,143.5 C 121.336,146.187 121.503,148.854 122,151.5C 123.011,152.337 124.178,152.67 125.5,152.5C 123.511,153.887 121.678,153.553 120,151.5C 119.115,148.462 119.615,145.795 121.5,143.5 Z"/></g>
<g><path style="opacity:0.02" fill="#1c1c1c" d="M 132.5,144.5 C 132.5,145.833 132.5,147.167 132.5,148.5C 131.833,148.5 131.5,148.833 131.5,149.5C 130.833,149.5 130.5,149.833 130.5,150.5C 129.833,150.5 129.5,150.833 129.5,151.5C 128.833,151.5 128.5,151.833 128.5,152.5C 127.5,152.5 126.5,152.5 125.5,152.5C 128.55,150.451 130.883,147.784 132.5,144.5 Z"/></g>
<g><path style="opacity:0.341" fill="#3b3b3b" d="M 132.5,148.5 C 132.833,148.5 133.167,148.5 133.5,148.5C 132.388,151.946 130.055,153.946 126.5,154.5C 127.167,153.833 127.833,153.167 128.5,152.5C 129.167,152.5 129.5,152.167 129.5,151.5C 130.167,151.5 130.5,151.167 130.5,150.5C 131.167,150.5 131.5,150.167 131.5,149.5C 132.167,149.5 132.5,149.167 132.5,148.5 Z"/></g>
<g><path style="opacity:0.102" fill="#242424" d="M 163.5,149.5 C 163.5,150.167 163.5,150.833 163.5,151.5C 162.5,152.833 161.5,154.167 160.5,155.5C 160.062,155.565 159.728,155.399 159.5,155C 160.488,152.833 161.821,151 163.5,149.5 Z"/></g>
<g><path style="opacity:0.018" fill="#1a1a1a" d="M 541.5,149.5 C 542.345,150.671 543.011,152.005 543.5,153.5C 543.5,153.833 543.5,154.167 543.5,154.5C 541.787,153.365 541.12,151.698 541.5,149.5 Z"/></g>
<g><path style="opacity:0.09" fill="#2b2b2b" d="M 645.5,147.5 C 645.833,147.5 646.167,147.5 646.5,147.5C 644.894,155.386 641.227,162.052 635.5,167.5C 639.361,161.112 642.694,154.446 645.5,147.5 Z"/></g>
<g><path style="opacity:0.235" fill="#444444" d="M 214.5,151.5 C 214.833,151.5 215.167,151.5 215.5,151.5C 215.539,154.089 214.539,156.089 212.5,157.5C 213.167,155.5 213.833,153.5 214.5,151.5 Z"/></g>
<g><path style="opacity:0.227" fill="#2a2a2a" d="M 562.5,152.5 C 564.262,153.262 565.262,154.596 565.5,156.5C 563.738,155.738 562.738,154.404 562.5,152.5 Z"/></g>
<g><path style="opacity:0.255" fill="#3b3b3b" d="M 168.5,150.5 C 166.957,152.928 165.957,155.594 165.5,158.5C 165.167,158.5 164.833,158.5 164.5,158.5C 164.259,154.981 165.593,152.315 168.5,150.5 Z"/></g>
<g><path style="opacity:0.6" fill="#8c8c8c" d="M 543.5,153.5 C 544.906,153.973 545.573,154.973 545.5,156.5C 544.833,156.167 544.167,155.833 543.5,155.5C 543.5,155.167 543.5,154.833 543.5,154.5C 543.5,154.167 543.5,153.833 543.5,153.5 Z"/></g>
<g><path style="opacity:0.141" fill="#363636" d="M 137.5,150.5 C 135.49,156.166 131.49,158.5 125.5,157.5C 124.662,157.842 124.328,158.508 124.5,159.5C 124.5,160.167 124.5,160.833 124.5,161.5C 124.167,161.5 123.833,161.5 123.5,161.5C 123.167,161.5 122.833,161.5 122.5,161.5C 122.539,160.417 122.873,159.417 123.5,158.5C 122.675,157.614 121.675,157.281 120.5,157.5C 121.607,155.031 123.607,154.031 126.5,154.5C 126.389,155.117 126.056,155.617 125.5,156C 127.167,156.667 128.833,156.667 130.5,156C 132.996,154.334 135.329,152.5 137.5,150.5 Z"/></g>
<g><path style="opacity:0.004" fill="#121212" d="M 160.5,156.5 C 159.89,157.391 159.557,158.391 159.5,159.5C 159.167,159.5 158.833,159.5 158.5,159.5C 158.285,157.821 158.952,156.821 160.5,156.5 Z"/></g>
<g><path style="opacity:0.013" fill="#040404" d="M 125.5,157.5 C 128.002,159.61 128.002,161.61 125.5,163.5C 125.167,163.5 124.833,163.5 124.5,163.5C 123.167,163.5 122.5,162.833 122.5,161.5C 122.833,161.5 123.167,161.5 123.5,161.5C 123.833,162.833 124.167,162.833 124.5,161.5C 125.833,160.833 125.833,160.167 124.5,159.5C 124.328,158.508 124.662,157.842 125.5,157.5 Z"/></g>
<g><path style="opacity:0.451" fill="#464646" d="M 624.5,152.5 C 621.769,158.897 617.103,163.23 610.5,165.5C 615.794,161.873 620.461,157.54 624.5,152.5 Z"/></g>
<g><path style="opacity:0.092" fill="#202020" d="M 125.5,124.5 C 115.789,132.385 107.622,141.718 101,152.5C 97.3788,160.419 98.2121,167.752 103.5,174.5C 102.833,174.5 102.167,174.5 101.5,174.5C 96.9994,167.144 96.4994,159.477 100,151.5C 105.803,139.848 114.303,130.848 125.5,124.5 Z"/></g>
<g><path style="opacity:0.013" fill="#313131" d="M 114.5,139.5 C 110.689,145.502 107.022,151.668 103.5,158C 105.136,159.935 106.969,160.435 109,159.5C 111.464,160.161 113.964,160.661 116.5,161C 117.056,161.383 117.389,161.883 117.5,162.5C 116.833,162.5 116.167,162.5 115.5,162.5C 112.537,161.259 109.537,161.259 106.5,162.5C 107.901,163.521 109.235,164.521 110.5,165.5C 104.318,164.076 103.985,164.742 109.5,167.5C 108.833,167.5 108.167,167.5 107.5,167.5C 102.458,165.953 100.625,162.62 102,157.5C 105.25,150.769 109.417,144.769 114.5,139.5 Z"/></g>
<g><path style="opacity:0.282" fill="#323232" d="M 543.5,155.5 C 544.167,155.833 544.833,156.167 545.5,156.5C 549.059,163.059 553.392,169.059 558.5,174.5C 554.232,172.067 550.732,168.734 548,164.5C 546.239,161.589 544.739,158.589 543.5,155.5 Z"/></g>
<g><path style="opacity:0.663" fill="#6c6c6c" d="M 158.5,159.5 C 158.833,159.5 159.167,159.5 159.5,159.5C 159.167,161.833 157.833,163.167 155.5,163.5C 156.5,162.167 157.5,160.833 158.5,159.5 Z"/></g>
<g><path style="opacity:0.204" fill="#393939" d="M 565.5,156.5 C 575.468,166.267 587.468,170.267 601.5,168.5C 601.5,168.833 601.5,169.167 601.5,169.5C 591.503,171.824 582.17,170.324 573.5,165C 569.93,162.932 567.263,160.099 565.5,156.5 Z"/></g>
<g><path style="opacity:0.816" fill="#9b9b9b" d="M 120.5,157.5 C 121.105,162.125 119.439,163.792 115.5,162.5C 116.167,162.5 116.833,162.5 117.5,162.5C 118.313,160.739 119.313,159.072 120.5,157.5 Z"/></g>
<g><path style="opacity:0.013" fill="#1f1f1f" d="M 175.5,151.5 C 171.824,155.541 168.157,159.541 164.5,163.5C 163.66,165.853 162.326,167.853 160.5,169.5C 161.028,168.153 161.195,166.819 161,165.5C 158.603,167.782 155.769,169.116 152.5,169.5C 154.121,167.883 156.121,166.716 158.5,166C 160.639,163.522 162.639,161.022 164.5,158.5C 164.833,161.167 165.167,161.167 165.5,158.5C 165.833,158.5 166.167,158.5 166.5,158.5C 167.078,159.547 167.744,159.38 168.5,158C 168.272,157.601 167.938,157.435 167.5,157.5C 169.313,154.353 171.98,152.353 175.5,151.5 Z"/></g>
<g><path style="opacity:0.451" fill="#858585" d="M 122.5,161.5 C 122.5,162.833 123.167,163.5 124.5,163.5C 124.5,163.833 124.5,164.167 124.5,164.5C 123.5,164.5 122.5,164.5 121.5,164.5C 121.263,163.209 121.596,162.209 122.5,161.5 Z"/></g>
<g><path style="opacity:0.118" fill="#2f2f2f" d="M 124.5,164.5 C 124.5,164.167 124.5,163.833 124.5,163.5C 124.833,163.5 125.167,163.5 125.5,163.5C 130.049,163.624 134.382,164.291 138.5,165.5C 136.5,165.5 134.5,165.5 132.5,165.5C 129.763,165.599 127.096,165.265 124.5,164.5 Z"/></g>
<g><path style="opacity:0.373" fill="#434343" d="M 110.5,165.5 C 112.833,165.5 115.167,165.5 117.5,165.5C 117.5,166.833 117.5,168.167 117.5,169.5C 116.5,169.5 115.5,169.5 114.5,169.5C 113.5,168.833 112.5,168.167 111.5,167.5C 112.239,167.631 112.906,167.464 113.5,167C 112.263,166.768 111.263,166.268 110.5,165.5 Z"/></g>
<g><path style="opacity:0.311" fill="#5d5d5d" d="M 155.5,163.5 C 154.653,164.966 153.32,165.8 151.5,166C 144.986,166.82 138.653,166.653 132.5,165.5C 134.5,165.5 136.5,165.5 138.5,165.5C 144.282,165.689 149.948,165.022 155.5,163.5 Z"/></g>
<g><path style="opacity:0.173" fill="#3e3e3e" d="M 207.5,162.5 C 199.852,169.122 191.185,174.122 181.5,177.5C 190.159,172.503 198.825,167.503 207.5,162.5 Z"/></g>
<g><path style="opacity:0.58" fill="#606060" d="M 610.5,165.5 C 607.947,167.584 604.947,168.917 601.5,169.5C 601.5,169.167 601.5,168.833 601.5,168.5C 604.341,167.331 607.341,166.331 610.5,165.5 Z"/></g>
<g><path style="opacity:0.541" fill="#929292" d="M 107.5,167.5 C 108.167,167.5 108.833,167.5 109.5,167.5C 110.167,167.5 110.833,167.5 111.5,167.5C 112.5,168.167 113.5,168.833 114.5,169.5C 111.848,169.59 109.515,168.924 107.5,167.5 Z"/></g>
<g><path style="opacity:0.411" fill="#535353" d="M 323.5,183.5 C 323.167,183.5 322.833,183.5 322.5,183.5C 322.8,178.901 322.467,174.401 321.5,170C 304.503,169.5 287.503,169.333 270.5,169.5C 270.5,169.167 270.5,168.833 270.5,168.5C 273.833,168.5 277.167,168.5 280.5,168.5C 291.016,168.659 301.516,168.326 312,167.5C 315.57,167.544 319.07,168.044 322.5,169C 323.469,173.737 323.803,178.57 323.5,183.5 Z"/></g>
<g><path style="opacity:0.413" fill="#525252" d="M 521.5,169.5 C 521.5,169.833 521.5,170.167 521.5,170.5C 504.069,169.846 486.735,169.18 469.5,168.5C 475.167,168.5 480.833,168.5 486.5,168.5C 495.016,168.604 503.516,168.271 512,167.5C 515.477,167.328 518.644,167.994 521.5,169.5 Z"/></g>
<g><path style="opacity:0.214" fill="#343434" d="M 127.5,168.5 C 135.822,169.055 144.156,169.388 152.5,169.5C 149.518,170.165 146.352,170.498 143,170.5C 137.589,170.621 132.423,169.954 127.5,168.5 Z"/></g>
<g><path style="opacity:0.227" fill="#545454" d="M 127.5,168.5 C 125.533,168.739 123.699,168.406 122,167.5C 121.833,167.833 121.667,168.167 121.5,168.5C 127.619,170.558 133.953,171.558 140.5,171.5C 144.97,172.486 149.637,172.819 154.5,172.5C 143.195,173.974 131.862,173.308 120.5,170.5C 120.5,169.167 120.5,167.833 120.5,166.5C 123.152,166.41 125.485,167.076 127.5,168.5 Z"/></g>
<g><path style="opacity:0.318" fill="#484848" d="M 709.5,142.5 C 717.958,155.312 725.625,168.646 732.5,182.5C 723.807,169.784 716.14,156.451 709.5,142.5 Z"/></g>
<g><path style="opacity:0.137" fill="#202020" d="M 160.5,169.5 C 159.313,171.975 157.313,172.975 154.5,172.5C 149.637,172.819 144.97,172.486 140.5,171.5C 145.878,171.398 151.045,171.398 156,171.5C 157.33,170.418 158.83,169.751 160.5,169.5 Z"/></g>
<g><path style="opacity:0.004" fill="#141414" d="M 634.5,168.5 C 633.833,171.167 632.167,172.833 629.5,173.5C 630.833,171.5 632.5,169.833 634.5,168.5 Z"/></g>
<g><path style="opacity:0.075" fill="#2f2f2f" d="M 629.5,173.5 C 622.897,180.135 614.897,184.135 605.5,185.5C 613.917,182.463 621.917,178.463 629.5,173.5 Z"/></g>
<g><path style="opacity:0.173" fill="#494949" d="M 105.5,175.5 C 106.708,176.234 108.041,176.567 109.5,176.5C 112.258,177.967 111.925,178.633 108.5,178.5C 106.302,178.88 104.635,178.213 103.5,176.5C 104.492,176.672 105.158,176.338 105.5,175.5 Z"/></g>
<g><path style="opacity:0.082" fill="#262626" d="M 558.5,174.5 C 561.117,175.786 563.45,177.453 565.5,179.5C 562.326,178.99 559.992,177.323 558.5,174.5 Z"/></g>
<g><path style="opacity:0.588" fill="#929292" d="M 109.5,176.5 C 111.484,176.383 113.15,177.05 114.5,178.5C 112.364,179.793 110.364,179.793 108.5,178.5C 111.925,178.633 112.258,177.967 109.5,176.5 Z"/></g>
<g><path style="opacity:0.15" fill="#303030" d="M 98.5,180.5 C 94.7806,180.002 91.4473,180.836 88.5,183C 89.7577,184.741 90.7577,186.574 91.5,188.5C 90.2058,187.71 89.0391,186.71 88,185.5C 87.2397,180.926 89.2397,178.926 94,179.5C 95.7067,179.508 97.2067,179.842 98.5,180.5 Z"/></g>
<g><path style="opacity:0.122" fill="#424242" d="M 181.5,177.5 C 178.47,179.403 175.137,180.737 171.5,181.5C 174.309,179.103 177.642,177.77 181.5,177.5 Z"/></g>
<g><path style="opacity:0.098" fill="#1a1a1a" d="M 98.5,180.5 C 99.8333,180.5 101.167,180.5 102.5,180.5C 103.167,181.167 103.833,181.833 104.5,182.5C 102.214,182.405 100.214,181.738 98.5,180.5 Z"/></g>
<g><path style="opacity:0.525" fill="#909090" d="M 102.5,180.5 C 107.364,182.041 112.364,182.708 117.5,182.5C 117.5,182.833 117.5,183.167 117.5,183.5C 114.833,183.5 112.167,183.5 109.5,183.5C 109.167,183.5 108.833,183.5 108.5,183.5C 107.292,182.766 105.959,182.433 104.5,182.5C 103.833,181.833 103.167,181.167 102.5,180.5 Z"/></g>
<g><path style="opacity:0.063" fill="#262626" d="M 120.5,181.5 C 120.917,180.876 121.584,180.543 122.5,180.5C 130.988,181.749 139.322,183.082 147.5,184.5C 138.598,184.528 129.598,183.528 120.5,181.5 Z"/></g>
<g><path style="opacity:0.284" fill="#363636" d="M 101.5,174.5 C 101.842,175.338 102.508,175.672 103.5,175.5C 103.5,175.833 103.5,176.167 103.5,176.5C 98.8708,175.519 94.2041,175.352 89.5,176C 84.6651,177.793 82.8318,181.293 84,186.5C 86.0982,190.103 88.9315,192.77 92.5,194.5C 84.2142,192.575 81.0475,187.575 83,179.5C 84.5265,176.422 87.0265,174.588 90.5,174C 94.2027,173.421 97.8694,173.588 101.5,174.5 Z"/></g>
<g><path style="opacity:0.106" fill="#363636" d="M 120.5,181.5 C 120.027,182.906 119.027,183.573 117.5,183.5C 117.5,183.167 117.5,182.833 117.5,182.5C 118.391,181.89 119.391,181.557 120.5,181.5 Z"/></g>
<g><path style="opacity:0.014" fill="#151515" d="M 565.5,179.5 C 568.485,180.326 571.151,181.659 573.5,183.5C 570.246,183.206 567.579,181.873 565.5,179.5 Z"/></g>
<g><path style="opacity:0.006" fill="#030303" d="M 104.5,182.5 C 105.959,182.433 107.292,182.766 108.5,183.5C 107.038,184.471 105.705,184.138 104.5,182.5 Z"/></g>
<g><path style="opacity:0.276" fill="#232323" d="M 109.5,183.5 C 112.167,183.5 114.833,183.5 117.5,183.5C 116.828,184.267 115.995,184.934 115,185.5C 112.975,185.928 111.142,185.261 109.5,183.5 Z"/></g>
<g><path style="opacity:0.829" fill="#969696" d="M 395.5,142.5 C 395.5,156.167 395.5,169.833 395.5,183.5C 395.5,184.167 395.167,184.5 394.5,184.5C 388.974,184.821 383.64,184.488 378.5,183.5C 383.833,183.5 389.167,183.5 394.5,183.5C 394.171,169.656 394.504,155.99 395.5,142.5 Z"/></g>
<g><path style="opacity:0.043" fill="#151515" d="M 573.5,183.5 C 574.791,183.263 575.791,183.596 576.5,184.5C 576.565,184.938 576.399,185.272 576,185.5C 575.005,184.934 574.172,184.267 573.5,183.5 Z"/></g>
<g><path style="opacity:0.84" fill="#949494" d="M 752.5,79.5 C 752.833,79.5 753.167,79.5 753.5,79.5C 753.421,114.182 753.587,148.848 754,183.5C 753.617,184.056 753.117,184.389 752.5,184.5C 746.642,184.822 740.975,184.489 735.5,183.5C 741.167,183.5 746.833,183.5 752.5,183.5C 752.5,148.833 752.5,114.167 752.5,79.5 Z"/></g>
<g><path style="opacity:0.159" fill="#2f2f2f" d="M 168.5,182.5 C 167.828,183.267 166.995,183.934 166,184.5C 160.231,185.428 154.398,185.428 148.5,184.5C 155.24,184.485 161.906,183.818 168.5,182.5 Z"/></g>
<g><path style="opacity:0.259" fill="#3d3d3d" d="M 322.5,183.5 C 322.833,183.5 323.167,183.5 323.5,183.5C 323.389,184.117 323.056,184.617 322.5,185C 299.33,185.83 276.33,185.663 253.5,184.5C 253.833,184.5 254.167,184.5 254.5,184.5C 277.242,184.822 299.908,184.489 322.5,183.5 Z"/></g>
<g><path style="opacity:0.255" fill="#383838" d="M 377.5,183.5 C 377.833,183.5 378.167,183.5 378.5,183.5C 383.64,184.488 388.974,184.821 394.5,184.5C 391.854,185.164 389.021,185.498 386,185.5C 382.748,185.481 379.915,184.814 377.5,183.5 Z"/></g>
<g><path style="opacity:0.259" fill="#3e3e3e" d="M 732.5,182.5 C 733.391,183.11 734.391,183.443 735.5,183.5C 740.975,184.489 746.642,184.822 752.5,184.5C 746.347,185.653 740.014,185.82 733.5,185C 732.748,184.329 732.414,183.496 732.5,182.5 Z"/></g>
<g><path style="opacity:0.18" fill="#2c2c2c" d="M 577.5,184.5 C 580.428,184.565 583.095,185.232 585.5,186.5C 582.505,186.706 579.838,186.04 577.5,184.5 Z"/></g>
<g><path style="opacity:0.135" fill="#212121" d="M 605.5,185.5 C 601.594,186.94 597.427,187.606 593,187.5C 590.31,187.497 587.81,187.164 585.5,186.5C 592.186,186.473 598.852,186.139 605.5,185.5 Z"/></g>
<g><path style="opacity:0.127" fill="#262626" d="M 91.5,188.5 C 104.931,189.971 118.264,190.971 131.5,191.5C 121.167,191.5 110.833,191.5 100.5,191.5C 97.8733,190.895 95.2066,190.395 92.5,190C 91.944,189.617 91.6107,189.117 91.5,188.5 Z"/></g>
<g><path style="opacity:0.677" fill="#a6a6a6" d="M 100.5,191.5 C 110.833,191.5 121.167,191.5 131.5,191.5C 131.833,191.5 132.167,191.5 132.5,191.5C 132.833,192.167 133.167,192.833 133.5,193.5C 122.371,192.876 111.371,192.209 100.5,191.5 Z"/></g>
<g><path style="opacity:0.314" fill="#3f3f3f" d="M 132.5,191.5 C 135.834,191.981 138.167,193.647 139.5,196.5C 137.784,194.975 135.784,193.975 133.5,193.5C 133.167,192.833 132.833,192.167 132.5,191.5 Z"/></g>
<g><path style="opacity:0.173" fill="#323232" d="M 92.5,194.5 C 96.1352,195.114 99.8019,195.448 103.5,195.5C 103.5,195.833 103.5,196.167 103.5,196.5C 100.121,196.322 96.9546,196.322 94,196.5C 93.2828,195.956 92.7828,195.289 92.5,194.5 Z"/></g>
<g><path style="opacity:0.388" fill="#4e4e4e" d="M 103.5,196.5 C 103.5,196.167 103.5,195.833 103.5,195.5C 112.173,195.334 120.84,195.5 129.5,196C 130.737,196.232 131.737,196.732 132.5,197.5C 122.829,197.101 113.162,196.768 103.5,196.5 Z"/></g>
<g><path style="opacity:0.531" fill="#555555" d="M 87.5,199.5 C 83.1667,199.5 78.8333,199.5 74.5,199.5C 74.5,199.167 74.5,198.833 74.5,198.5C 75.2739,197.853 76.2739,197.52 77.5,197.5C 81.0242,197.901 84.3576,198.567 87.5,199.5 Z"/></g>
<g><path style="opacity:0.027" fill="#232323" d="M 91.5,200.5 C 93.8333,200.833 95.1667,202.167 95.5,204.5C 93.8333,203.5 92.5,202.167 91.5,200.5 Z"/></g>
<g><path style="opacity:0.275" fill="#434343" d="M 132.5,197.5 C 133.5,197.5 134.5,197.5 135.5,197.5C 135.714,199.144 135.38,200.644 134.5,202C 130.312,203.631 125.979,204.464 121.5,204.5C 124.713,203.513 128.046,202.513 131.5,201.5C 132.429,200.311 132.762,198.978 132.5,197.5 Z"/></g>
<g><path style="opacity:0.578" fill="#5d5d5d" d="M 279.5,205.5 C 274.833,205.5 270.167,205.5 265.5,205.5C 265.5,205.167 265.5,204.833 265.5,204.5C 270.262,203.109 274.928,203.442 279.5,205.5 Z"/></g>
<g><path style="opacity:0.301" fill="#454545" d="M 414.5,205.5 C 426.655,204.505 438.989,204.171 451.5,204.5C 452.013,207.449 452.013,210.282 451.5,213C 446.845,213.499 442.179,213.666 437.5,213.5C 437.333,224.838 437.5,236.172 438,247.5C 442.141,246.951 446.641,246.951 451.5,247.5C 451.945,250.28 451.945,252.947 451.5,255.5C 439.006,256.825 426.673,256.825 414.5,255.5C 414.5,253.5 414.5,251.5 414.5,249.5C 414.5,249.167 414.5,248.833 414.5,248.5C 414.833,248.5 415.167,248.5 415.5,248.5C 415.5,250.833 415.5,253.167 415.5,255.5C 426.833,255.5 438.167,255.5 449.5,255.5C 450.468,253.393 450.802,251.059 450.5,248.5C 445.833,248.5 441.167,248.5 436.5,248.5C 436.5,236.5 436.5,224.5 436.5,212.5C 441.167,212.5 445.833,212.5 450.5,212.5C 450.5,210.167 450.5,207.833 450.5,205.5C 438.5,205.5 426.5,205.5 414.5,205.5 Z"/></g>
<g><path style="opacity:0.3" fill="#3d3d3d" d="M 570.5,206.5 C 567.946,205.612 565.279,205.279 562.5,205.5C 563.796,209.76 564.796,214.094 565.5,218.5C 563.065,214.201 561.398,209.534 560.5,204.5C 564.329,203.931 567.663,204.598 570.5,206.5 Z"/></g>
<g><path style="opacity:0.298" fill="#393939" d="M 637.5,247.5 C 636.505,236.012 636.172,224.345 636.5,212.5C 640.833,212.5 645.167,212.5 649.5,212.5C 649.5,210.167 649.5,207.833 649.5,205.5C 637.833,205.5 626.167,205.5 614.5,205.5C 614.5,207.833 614.5,210.167 614.5,212.5C 614.167,212.5 613.833,212.5 613.5,212.5C 613.5,209.833 613.5,207.167 613.5,204.5C 625.833,204.5 638.167,204.5 650.5,204.5C 650.827,207.482 650.827,210.315 650.5,213C 646.179,213.499 641.846,213.666 637.5,213.5C 637.5,224.833 637.5,236.167 637.5,247.5 Z"/></g>
<g><path style="opacity:0.299" fill="#6a6a6a" d="M 753.5,255.5 C 753.167,255.5 752.833,255.5 752.5,255.5C 752.5,238.833 752.5,222.167 752.5,205.5C 750.167,205.5 747.833,205.5 745.5,205.5C 745.825,212.687 745.491,219.687 744.5,226.5C 744.5,219.5 744.5,212.5 744.5,205.5C 747.287,204.523 750.287,204.19 753.5,204.5C 753.5,221.5 753.5,238.5 753.5,255.5 Z"/></g>
<g><path style="opacity:1" fill="#f2f2f2" d="M 265.5,205.5 C 270.167,205.5 274.833,205.5 279.5,205.5C 281.619,207.4 283.953,209.066 286.5,210.5C 286.674,212.861 287.007,215.194 287.5,217.5C 285.5,217.5 283.5,217.5 281.5,217.5C 281.167,217.5 280.833,217.5 280.5,217.5C 280.473,215.801 279.806,214.467 278.5,213.5C 276.538,211.983 274.205,211.316 271.5,211.5C 269.631,211.507 267.964,211.84 266.5,212.5C 261.219,214.578 260.219,217.911 263.5,222.5C 263.577,223.75 264.244,224.583 265.5,225C 268.063,226.079 270.729,226.579 273.5,226.5C 275.099,226.232 276.432,226.566 277.5,227.5C 280.231,229.372 283.231,231.039 286.5,232.5C 286.738,234.404 287.738,235.738 289.5,236.5C 289.5,236.833 289.5,237.167 289.5,237.5C 289.5,240.833 289.5,244.167 289.5,247.5C 283.531,255.635 275.531,258.469 265.5,256C 257.886,255.221 253.886,251.054 253.5,243.5C 255.833,243.5 258.167,243.5 260.5,243.5C 260.263,244.791 260.596,245.791 261.5,246.5C 262.82,247.942 264.486,248.608 266.5,248.5C 269.396,249.775 272.396,249.775 275.5,248.5C 275.833,248.5 276.167,248.5 276.5,248.5C 280.312,247.922 281.979,245.589 281.5,241.5C 281.415,239.667 280.748,238.334 279.5,237.5C 278.508,237.672 277.842,237.338 277.5,236.5C 276.01,234.72 274.01,234.054 271.5,234.5C 271.389,233.883 271.056,233.383 270.5,233C 259.718,232.054 254.384,226.221 254.5,215.5C 254.629,213.784 254.962,212.117 255.5,210.5C 258.38,207.961 261.713,206.294 265.5,205.5 Z"/></g>
<g><path style="opacity:0.841" fill="#c4c4c4" d="M 414.5,205.5 C 426.5,205.5 438.5,205.5 450.5,205.5C 450.5,207.833 450.5,210.167 450.5,212.5C 445.833,212.5 441.167,212.5 436.5,212.5C 440.634,211.515 444.968,211.182 449.5,211.5C 449.5,209.833 449.5,208.167 449.5,206.5C 438.167,206.5 426.833,206.5 415.5,206.5C 415.5,208.167 415.5,209.833 415.5,211.5C 420.032,211.182 424.366,211.515 428.5,212.5C 423.833,212.5 419.167,212.5 414.5,212.5C 414.5,210.5 414.5,208.5 414.5,206.5C 414.5,206.167 414.5,205.833 414.5,205.5 Z"/></g>
<g><path style="opacity:0.518" fill="#585858" d="M 535.5,205.5 C 522.706,203.907 512.706,208.241 505.5,218.5C 512.031,205.896 522.031,201.563 535.5,205.5 Z"/></g>
<g><path style="opacity:1" fill="#f5f5f5" d="M 535.5,205.5 C 537.033,207.245 539.033,208.245 541.5,208.5C 544.009,209.921 546.343,211.588 548.5,213.5C 548.738,215.404 549.738,216.738 551.5,217.5C 552.338,217.842 552.672,218.508 552.5,219.5C 553.15,221.435 553.483,223.435 553.5,225.5C 554.76,234.131 552.76,241.797 547.5,248.5C 540.686,254.567 532.686,257.233 523.5,256.5C 520.872,255.186 518.205,253.853 515.5,252.5C 514.833,252.5 514.167,252.5 513.5,252.5C 510.25,248.978 507.25,245.311 504.5,241.5C 503.68,235.203 503.347,228.869 503.5,222.5C 504.674,221.486 505.34,220.153 505.5,218.5C 512.706,208.241 522.706,203.907 535.5,205.5 Z M 538.5,216.5 C 542.178,220.193 544.511,224.527 545.5,229.5C 545.051,238.427 540.718,244.427 532.5,247.5C 517.217,247.378 510.717,239.712 513,224.5C 518.991,213.892 527.491,211.225 538.5,216.5 Z"/></g>
<g><path style="opacity:1" fill="#ececec" d="M 702.5,214.5 C 702.167,215.5 701.5,216.167 700.5,216.5C 699.167,216.5 697.833,216.5 696.5,216.5C 694.95,215.559 693.284,214.893 691.5,214.5C 680.913,210.379 673.413,213.713 669,224.5C 668.333,228.167 668.333,231.833 669,235.5C 669.232,236.737 669.732,237.737 670.5,238.5C 670.427,240.027 671.094,241.027 672.5,241.5C 673.706,245.365 676.373,247.365 680.5,247.5C 684.548,247.605 688.548,247.272 692.5,246.5C 694.38,246.771 695.713,246.104 696.5,244.5C 697.705,243.314 699.039,243.314 700.5,244.5C 701.63,246.315 702.296,248.315 702.5,250.5C 701.101,251.89 699.434,252.89 697.5,253.5C 695.973,253.427 694.973,254.094 694.5,255.5C 693.791,256.404 692.791,256.737 691.5,256.5C 687.818,256.665 684.152,256.499 680.5,256C 677.256,254.53 673.923,253.363 670.5,252.5C 664.52,247.206 661.186,240.54 660.5,232.5C 660.538,227.729 661.204,223.062 662.5,218.5C 662.328,217.508 662.662,216.842 663.5,216.5C 666.833,213.833 669.833,210.833 672.5,207.5C 679.021,205.629 685.687,205.129 692.5,206C 695.629,207.399 698.629,209.065 701.5,211C 702.337,212.011 702.67,213.178 702.5,214.5 Z"/></g>
<g><path style="opacity:0.404" fill="#434343" d="M 95.5,204.5 C 96.2216,204.918 96.7216,205.584 97,206.5C 100.394,205.544 103.894,205.211 107.5,205.5C 105.167,206.167 102.833,206.833 100.5,207.5C 98.8333,207.5 97.1667,207.5 95.5,207.5C 95.5,206.5 95.5,205.5 95.5,204.5 Z"/></g>
<g><path style="opacity:0.847" fill="#868686" d="M 121.5,204.5 C 114.826,206.871 107.826,207.871 100.5,207.5C 102.833,206.833 105.167,206.167 107.5,205.5C 112.13,204.771 116.797,204.437 121.5,204.5 Z"/></g>
<g><path style="opacity:0.373" fill="#3b3b3b" d="M 265.5,204.5 C 265.5,204.833 265.5,205.167 265.5,205.5C 261.713,206.294 258.38,207.961 255.5,210.5C 257.506,206.529 260.839,204.529 265.5,204.5 Z"/></g>
<g><path style="opacity:0.408" fill="#4d4d4d" d="M 279.5,205.5 C 281.783,205.608 283.783,206.441 285.5,208C 286.252,208.671 286.586,209.504 286.5,210.5C 283.953,209.066 281.619,207.4 279.5,205.5 Z"/></g>
<g><path style="opacity:1" fill="#fafafa" d="M 308.5,226.5 C 316.167,226.5 323.833,226.5 331.5,226.5C 332.491,220.021 332.824,213.354 332.5,206.5C 334.833,206.5 337.167,206.5 339.5,206.5C 339.5,222.833 339.5,239.167 339.5,255.5C 336.833,255.5 334.167,255.5 331.5,255.5C 331.5,248.5 331.5,241.5 331.5,234.5C 323.684,233.508 315.684,233.174 307.5,233.5C 307.5,240.833 307.5,248.167 307.5,255.5C 305.167,255.5 302.833,255.5 300.5,255.5C 300.5,238.833 300.5,222.167 300.5,205.5C 302.833,205.5 305.167,205.5 307.5,205.5C 307.175,212.687 307.509,219.687 308.5,226.5 Z"/></g>
<g><path style="opacity:0.455" fill="#4e4e4e" d="M 308.5,225.5 C 308.5,225.833 308.5,226.167 308.5,226.5C 307.509,219.687 307.175,212.687 307.5,205.5C 305.167,205.5 302.833,205.5 300.5,205.5C 300.5,222.167 300.5,238.833 300.5,255.5C 300.167,255.5 299.833,255.5 299.5,255.5C 298.338,239.005 298.172,222.338 299,205.5C 302.333,204.167 305.667,204.167 309,205.5C 309.792,212.247 309.626,218.914 308.5,225.5 Z"/></g>
<g><path style="opacity:0.312" fill="#424242" d="M 330.5,234.5 C 330.833,234.5 331.167,234.5 331.5,234.5C 331.5,241.5 331.5,248.5 331.5,255.5C 334.167,255.5 336.833,255.5 339.5,255.5C 339.5,239.167 339.5,222.833 339.5,206.5C 337.052,205.527 334.385,205.194 331.5,205.5C 331.5,212.5 331.5,219.5 331.5,226.5C 323.833,226.5 316.167,226.5 308.5,226.5C 308.5,226.167 308.5,225.833 308.5,225.5C 315.833,225.5 323.167,225.5 330.5,225.5C 330.5,218.5 330.5,211.5 330.5,204.5C 333.833,204.5 337.167,204.5 340.5,204.5C 340.5,221.833 340.5,239.167 340.5,256.5C 337.167,256.5 333.833,256.5 330.5,256.5C 330.5,249.167 330.5,241.833 330.5,234.5 Z"/></g>
<g><path style="opacity:0.735" fill="#b6b6b6" d="M 339.5,206.5 C 337.167,206.5 334.833,206.5 332.5,206.5C 332.824,213.354 332.491,220.021 331.5,226.5C 331.5,219.5 331.5,212.5 331.5,205.5C 334.385,205.194 337.052,205.527 339.5,206.5 Z"/></g>
<g><path style="opacity:1" fill="#f8f8f8" d="M 361.5,205.5 C 361.166,208.491 362.166,210.824 364.5,212.5C 364.12,214.698 364.787,216.365 366.5,217.5C 366.12,219.698 366.787,221.365 368.5,222.5C 369.531,228.267 371.531,233.601 374.5,238.5C 375.162,240.47 375.828,242.47 376.5,244.5C 377.257,245.773 377.923,245.773 378.5,244.5C 378.5,243.5 378.5,242.5 378.5,241.5C 379.5,241.167 380.167,240.5 380.5,239.5C 385.167,228.5 389.833,217.5 394.5,206.5C 397.167,206.5 399.833,206.5 402.5,206.5C 402.5,222.833 402.5,239.167 402.5,255.5C 400.167,255.5 397.833,255.5 395.5,255.5C 395.667,244.495 395.5,233.495 395,222.5C 393.155,224.867 391.989,227.533 391.5,230.5C 388.467,238.907 385.134,247.24 381.5,255.5C 378.753,255.813 376.086,255.48 373.5,254.5C 371.506,249.521 369.506,244.521 367.5,239.5C 367.771,237.62 367.104,236.287 365.5,235.5C 364.654,232.452 363.654,229.452 362.5,226.5C 362.372,224.91 361.705,223.577 360.5,222.5C 359.501,233.48 359.168,244.48 359.5,255.5C 357.167,255.5 354.833,255.5 352.5,255.5C 352.5,238.833 352.5,222.167 352.5,205.5C 355.5,205.5 358.5,205.5 361.5,205.5 Z M 378.5,241.5 C 378.5,242.5 378.5,243.5 378.5,244.5C 376.443,242.957 376.443,241.957 378.5,241.5 Z"/></g>
<g><path style="opacity:0.742" fill="#8d8d8d" d="M 394.5,206.5 C 397.287,205.523 400.287,205.19 403.5,205.5C 404.833,222.167 404.833,238.833 403.5,255.5C 403.167,255.5 402.833,255.5 402.5,255.5C 402.5,239.167 402.5,222.833 402.5,206.5C 399.833,206.5 397.167,206.5 394.5,206.5 Z"/></g>
<g><path style="opacity:1" fill="#f9f9f9" d="M 436.5,212.5 C 436.5,224.5 436.5,236.5 436.5,248.5C 440.634,249.485 444.968,249.818 449.5,249.5C 449.5,251.5 449.5,253.5 449.5,255.5C 438.167,255.5 426.833,255.5 415.5,255.5C 415.5,253.167 415.5,250.833 415.5,248.5C 419.833,248.5 424.167,248.5 428.5,248.5C 428.5,236.5 428.5,224.5 428.5,212.5C 424.366,211.515 420.032,211.182 415.5,211.5C 415.5,209.833 415.5,208.167 415.5,206.5C 426.833,206.5 438.167,206.5 449.5,206.5C 449.5,208.167 449.5,209.833 449.5,211.5C 444.968,211.182 440.634,211.515 436.5,212.5 Z"/></g>
<g><path style="opacity:1" fill="#fefefe" d="M 469.5,248.5 C 477.316,249.492 485.316,249.826 493.5,249.5C 493.5,251.5 493.5,253.5 493.5,255.5C 483.167,255.5 472.833,255.5 462.5,255.5C 462.5,238.833 462.5,222.167 462.5,205.5C 464.833,205.5 467.167,205.5 469.5,205.5C 469.5,219.833 469.5,234.167 469.5,248.5 Z"/></g>
<g><path style="opacity:0.42" fill="#5f5f5f" d="M 470.5,247.5 C 470.5,247.833 470.5,248.167 470.5,248.5C 470.167,248.5 469.833,248.5 469.5,248.5C 469.5,234.167 469.5,219.833 469.5,205.5C 467.167,205.5 464.833,205.5 462.5,205.5C 462.5,222.167 462.5,238.833 462.5,255.5C 461.503,239.008 461.17,222.342 461.5,205.5C 462.793,204.842 464.293,204.508 466,204.5C 468.281,204.563 470.114,205.397 471.5,207C 470.686,220.445 470.353,233.945 470.5,247.5 Z"/></g>
<g><path style="opacity:1" fill="#f4f4f4" d="M 570.5,206.5 C 573.309,215.465 576.142,224.465 579,233.5C 580.03,235.346 581.196,237.013 582.5,238.5C 582.201,240.604 582.534,242.604 583.5,244.5C 584.298,244.043 584.631,243.376 584.5,242.5C 587.309,237.195 589.309,231.528 590.5,225.5C 591.117,225.389 591.617,225.056 592,224.5C 593.944,218.835 595.778,213.168 597.5,207.5C 597.611,206.883 597.944,206.383 598.5,206C 600.81,205.503 603.143,205.337 605.5,205.5C 605.5,206.833 605.5,208.167 605.5,209.5C 604.883,209.611 604.383,209.944 604,210.5C 601.52,217.097 599.353,223.764 597.5,230.5C 597.5,230.833 597.5,231.167 597.5,231.5C 594.871,235.377 593.204,239.71 592.5,244.5C 590.839,247.711 589.172,251.045 587.5,254.5C 580.955,256.971 577.622,254.638 577.5,247.5C 575.391,240.484 572.724,233.818 569.5,227.5C 569.308,223.898 567.974,220.898 565.5,218.5C 564.796,214.094 563.796,209.76 562.5,205.5C 565.279,205.279 567.946,205.612 570.5,206.5 Z"/></g>
<g><path style="opacity:1" fill="#f8f8f8" d="M 636.5,212.5 C 635.505,224.322 635.172,236.322 635.5,248.5C 640.167,248.5 644.833,248.5 649.5,248.5C 649.5,250.833 649.5,253.167 649.5,255.5C 637.833,255.5 626.167,255.5 614.5,255.5C 614.5,253.167 614.5,250.833 614.5,248.5C 619.167,248.5 623.833,248.5 628.5,248.5C 628.828,236.322 628.495,224.322 627.5,212.5C 623.167,212.5 618.833,212.5 614.5,212.5C 614.5,210.167 614.5,207.833 614.5,205.5C 626.167,205.5 637.833,205.5 649.5,205.5C 649.5,207.833 649.5,210.167 649.5,212.5C 645.167,212.5 640.833,212.5 636.5,212.5 Z"/></g>
<g><path style="opacity:1" fill="#fafafa" d="M 752.5,255.5 C 750.5,255.5 748.5,255.5 746.5,255.5C 745.864,248.067 745.198,240.734 744.5,233.5C 736.833,233.5 729.167,233.5 721.5,233.5C 721.5,240.833 721.5,248.167 721.5,255.5C 718.881,255.768 716.381,255.435 714,254.5C 713.5,238.503 713.333,222.503 713.5,206.5C 715.833,206.5 718.167,206.5 720.5,206.5C 720.176,213.354 720.509,220.021 721.5,226.5C 729.167,226.5 736.833,226.5 744.5,226.5C 745.491,219.687 745.825,212.687 745.5,205.5C 747.833,205.5 750.167,205.5 752.5,205.5C 752.5,222.167 752.5,238.833 752.5,255.5 Z"/></g>
<g><path style="opacity:0.68" fill="#ababab" d="M 713.5,206.5 C 715.948,205.527 718.615,205.194 721.5,205.5C 721.5,212.5 721.5,219.5 721.5,226.5C 720.509,220.021 720.176,213.354 720.5,206.5C 718.167,206.5 715.833,206.5 713.5,206.5 Z"/></g>
<g><path style="opacity:0.52" fill="#565656" d="M 361.5,205.5 C 358.5,205.5 355.5,205.5 352.5,205.5C 352.5,222.167 352.5,238.833 352.5,255.5C 352.167,255.5 351.833,255.5 351.5,255.5C 350.338,239.005 350.172,222.338 351,205.5C 354.601,204.18 358.101,204.18 361.5,205.5 Z"/></g>
<g><path style="opacity:0.067" fill="#0d0d0d" d="M 414.5,206.5 C 414.5,208.5 414.5,210.5 414.5,212.5C 412.084,210.295 412.084,208.295 414.5,206.5 Z"/></g>
<g><path style="opacity:0.475" fill="#616161" d="M 535.5,205.5 C 537.898,205.259 539.898,205.926 541.5,207.5C 541.5,207.833 541.5,208.167 541.5,208.5C 539.033,208.245 537.033,207.245 535.5,205.5 Z"/></g>
<g><path style="opacity:0.322" fill="#444444" d="M 702.5,214.5 C 702.67,213.178 702.337,212.011 701.5,211C 698.629,209.065 695.629,207.399 692.5,206C 685.687,205.129 679.021,205.629 672.5,207.5C 673.6,206.442 674.934,205.608 676.5,205C 686.869,202.308 696.036,204.475 704,211.5C 704.585,212.998 704.085,213.998 702.5,214.5 Z"/></g>
<g><path style="opacity:0.339" fill="#4e4e4e" d="M 721.5,205.5 C 718.615,205.194 715.948,205.527 713.5,206.5C 713.333,222.503 713.5,238.503 714,254.5C 716.381,255.435 718.881,255.768 721.5,255.5C 720.207,256.158 718.707,256.492 717,256.5C 714.719,256.437 712.886,255.603 711.5,254C 712.492,237.577 712.825,221.077 712.5,204.5C 715.713,204.19 718.713,204.523 721.5,205.5 Z"/></g>
<g><path style="opacity:0.098" fill="#2c2c2c" d="M 137.5,204.5 C 135.791,206.813 133.457,208.313 130.5,209C 125.752,210.301 121.085,210.801 116.5,210.5C 123.706,209.612 130.706,207.612 137.5,204.5 Z"/></g>
<g><path style="opacity:0.792" fill="#606060" d="M 361.5,205.5 C 363.293,207.426 364.293,209.759 364.5,212.5C 362.166,210.824 361.166,208.491 361.5,205.5 Z"/></g>
<g><path style="opacity:0.086" fill="#2f2f2f" d="M 605.5,209.5 C 605.5,208.167 605.5,206.833 605.5,205.5C 603.143,205.337 600.81,205.503 598.5,206C 597.944,206.383 597.611,206.883 597.5,207.5C 597.167,207.5 596.833,207.5 596.5,207.5C 596.414,206.504 596.748,205.671 597.5,205C 600.817,204.502 604.15,204.335 607.5,204.5C 607.598,206.553 606.931,208.22 605.5,209.5 Z"/></g>
<g><path style="opacity:0.29" fill="#2f2f2f" d="M 107.5,211.5 C 107.5,211.167 107.5,210.833 107.5,210.5C 110.167,210.5 112.833,210.5 115.5,210.5C 112.906,211.89 110.239,212.223 107.5,211.5 Z"/></g>
<g><path style="opacity:0.165" fill="#222222" d="M 541.5,208.5 C 541.5,208.167 541.5,207.833 541.5,207.5C 544.888,208.348 547.221,210.348 548.5,213.5C 546.343,211.588 544.009,209.921 541.5,208.5 Z"/></g>
<g><path style="opacity:0.302" fill="#606060" d="M 596.5,207.5 C 596.833,207.5 597.167,207.5 597.5,207.5C 595.778,213.168 593.944,218.835 592,224.5C 591.617,225.056 591.117,225.389 590.5,225.5C 592.302,219.426 594.302,213.426 596.5,207.5 Z"/></g>
<g><path style="opacity:0.576" fill="#595959" d="M 672.5,207.5 C 669.833,210.833 666.833,213.833 663.5,216.5C 665.5,212.5 668.5,209.5 672.5,207.5 Z"/></g>
<g><path style="opacity:0.486" fill="#898989" d="M 266.5,212.5 C 267.964,211.84 269.631,211.507 271.5,211.5C 274.205,211.316 276.538,211.983 278.5,213.5C 277.5,213.5 276.5,213.5 275.5,213.5C 272.713,212.523 269.713,212.19 266.5,212.5 Z"/></g>
<g><path style="opacity:0.153" fill="#282828" d="M 74.5,198.5 C 74.5,198.833 74.5,199.167 74.5,199.5C 73.7109,199.783 73.0442,200.283 72.5,201C 68.5787,201.203 64.7454,201.703 61,202.5C 60.4257,206.977 60.9257,211.31 62.5,215.5C 61.4138,215.38 60.7472,214.713 60.5,213.5C 59.1806,209.906 58.6806,206.239 59,202.5C 62.0208,199.463 65.5208,198.796 69.5,200.5C 71.1772,199.813 72.8439,199.146 74.5,198.5 Z"/></g>
<g><path style="opacity:0.118" fill="#333333" d="M 266.5,212.5 C 269.713,212.19 272.713,212.523 275.5,213.5C 271.692,213.163 268.026,213.663 264.5,215C 263.565,217.381 263.232,219.881 263.5,222.5C 260.219,217.911 261.219,214.578 266.5,212.5 Z"/></g>
<g><path style="opacity:0.051" fill="#202020" d="M 275.5,213.5 C 276.5,213.5 277.5,213.5 278.5,213.5C 279.806,214.467 280.473,215.801 280.5,217.5C 278.809,216.136 277.142,214.803 275.5,213.5 Z"/></g>
<g><path style="opacity:0.009" fill="#0b0b0b" d="M 255.5,210.5 C 254.962,212.117 254.629,213.784 254.5,215.5C 253.532,217.607 253.198,219.941 253.5,222.5C 252.366,220.034 252.199,217.367 253,214.5C 253.2,212.68 254.034,211.347 255.5,210.5 Z"/></g>
<g><path style="opacity:0.092" fill="#252525" d="M 62.5,215.5 C 65.8333,215.5 69.1667,215.5 72.5,215.5C 72.366,217.292 72.6993,218.958 73.5,220.5C 71.0882,220.306 70.0882,218.973 70.5,216.5C 67.6146,216.806 64.9479,216.473 62.5,215.5 Z"/></g>
<g><path style="opacity:0.518" fill="#707070" d="M 286.5,210.5 C 288.663,212.954 289.33,215.62 288.5,218.5C 285.941,218.802 283.607,218.468 281.5,217.5C 283.5,217.5 285.5,217.5 287.5,217.5C 287.007,215.194 286.674,212.861 286.5,210.5 Z"/></g>
<g><path style="opacity:0.647" fill="#636363" d="M 364.5,212.5 C 365.537,213.93 366.204,215.597 366.5,217.5C 364.787,216.365 364.12,214.698 364.5,212.5 Z"/></g>
<g><path style="opacity:0.122" fill="#363636" d="M 538.5,216.5 C 527.491,211.225 518.991,213.892 513,224.5C 510.717,239.712 517.217,247.378 532.5,247.5C 532.5,247.833 532.5,248.167 532.5,248.5C 521.32,249.994 514.154,245.327 511,234.5C 509.612,224.111 513.778,216.944 523.5,213C 526.833,212.333 530.167,212.333 533.5,213C 535.584,213.697 537.251,214.864 538.5,216.5 Z"/></g>
<g><path style="opacity:0.337" fill="#3b3b3b" d="M 548.5,213.5 C 550.262,214.262 551.262,215.596 551.5,217.5C 549.738,216.738 548.738,215.404 548.5,213.5 Z"/></g>
<g><path style="opacity:0.02" fill="#141414" d="M 691.5,214.5 C 693.284,214.893 694.95,215.559 696.5,216.5C 696.5,216.833 696.5,217.167 696.5,217.5C 694.326,217.25 692.659,216.25 691.5,214.5 Z"/></g>
<g><path style="opacity:0.067" fill="#454545" d="M 107.5,210.5 C 107.5,210.833 107.5,211.167 107.5,211.5C 103.901,212.344 100.234,212.677 96.5,212.5C 96.9754,215.313 95.9754,217.313 93.5,218.5C 94.7231,216.128 95.7231,213.628 96.5,211C 100.152,210.501 103.818,210.335 107.5,210.5 Z"/></g>
<g><path style="opacity:0.353" fill="#343434" d="M 538.5,216.5 C 542.797,218.418 545.13,221.751 545.5,226.5C 545.5,227.5 545.5,228.5 545.5,229.5C 544.511,224.527 542.178,220.193 538.5,216.5 Z"/></g>
<g><path style="opacity:0.667" fill="#555555" d="M 696.5,216.5 C 697.833,216.5 699.167,216.5 700.5,216.5C 699.462,218.519 698.128,218.853 696.5,217.5C 696.5,217.167 696.5,216.833 696.5,216.5 Z"/></g>
<g><path style="opacity:0.133" fill="#1e1e1e" d="M 280.5,217.5 C 280.833,217.5 281.167,217.5 281.5,217.5C 283.607,218.468 285.941,218.802 288.5,218.5C 287.378,219.156 286.045,219.489 284.5,219.5C 282.667,219.415 281.334,218.748 280.5,217.5 Z"/></g>
<g><path style="opacity:0.631" fill="#5b5b5b" d="M 403.5,205.5 C 400.287,205.19 397.287,205.523 394.5,206.5C 389.833,217.5 385.167,228.5 380.5,239.5C 380.5,238.833 380.5,238.167 380.5,237.5C 384.338,227.622 388.505,216.955 393,205.5C 396.601,204.18 400.101,204.18 403.5,205.5 Z"/></g>
<g><path style="opacity:0.141" fill="#292929" d="M 414.5,212.5 C 419.167,212.5 423.833,212.5 428.5,212.5C 428.5,224.5 428.5,236.5 428.5,248.5C 424.167,248.5 419.833,248.5 415.5,248.5C 415.167,248.5 414.833,248.5 414.5,248.5C 415.624,247.191 417.124,246.525 419,246.5C 421.759,247.398 424.425,247.731 427,247.5C 427.5,236.172 427.667,224.838 427.5,213.5C 422.968,213.818 418.634,213.485 414.5,212.5 Z"/></g>
<g><path style="opacity:0.275" fill="#2d2d2d" d="M 73.5,220.5 C 78.1667,220.5 82.8333,220.5 87.5,220.5C 87.5,220.833 87.5,221.167 87.5,221.5C 84.7956,221.823 81.9622,222.156 79,222.5C 76.9701,222.046 75.1368,221.38 73.5,220.5 Z"/></g>
<g><path style="opacity:0.024" fill="#1a1a1a" d="M 93.5,218.5 C 92.3126,220.975 90.3126,221.975 87.5,221.5C 87.5,221.167 87.5,220.833 87.5,220.5C 89.6854,220.296 91.6854,219.63 93.5,218.5 Z"/></g>
<g><path style="opacity:0.046" fill="#171717" d="M 461.5,205.5 C 461.17,222.342 461.503,239.008 462.5,255.5C 462.5,255.833 462.5,256.167 462.5,256.5C 461.169,248.361 460.502,239.861 460.5,231C 460.5,222.327 460.834,213.827 461.5,205.5 Z"/></g>
<g><path style="opacity:0.11" fill="#2f2f2f" d="M 505.5,218.5 C 505.34,220.153 504.674,221.486 503.5,222.5C 503.229,220.62 503.896,219.287 505.5,218.5 Z"/></g>
<g><path style="opacity:0.016" fill="#161616" d="M 552.5,219.5 C 553.117,219.611 553.617,219.944 554,220.5C 554.273,222.101 554.773,223.601 555.5,225C 555.272,225.399 554.938,225.565 554.5,225.5C 554.167,225.5 553.833,225.5 553.5,225.5C 553.483,223.435 553.15,221.435 552.5,219.5 Z"/></g>
<g><path style="opacity:0.329" fill="#444444" d="M 366.5,217.5 C 368.213,218.635 368.88,220.302 368.5,222.5C 366.787,221.365 366.12,219.698 366.5,217.5 Z"/></g>
<g><path style="opacity:0.129" fill="#343434" d="M 605.5,209.5 C 603.987,217.055 601.32,224.055 597.5,230.5C 599.353,223.764 601.52,217.097 604,210.5C 604.383,209.944 604.883,209.611 605.5,209.5 Z"/></g>
<g><path style="opacity:0.114" fill="#2b2b2b" d="M 691.5,214.5 C 674.396,213.286 667.396,221.286 670.5,238.5C 669.732,237.737 669.232,236.737 669,235.5C 668.333,231.833 668.333,228.167 669,224.5C 673.413,213.713 680.913,210.379 691.5,214.5 Z"/></g>
<g><path style="opacity:0.075" fill="#3e3e3e" d="M 263.5,222.5 C 266.836,224.051 270.169,225.385 273.5,226.5C 270.729,226.579 268.063,226.079 265.5,225C 264.244,224.583 263.577,223.75 263.5,222.5 Z"/></g>
<g><path style="opacity:0.129" fill="#3c3c3c" d="M 570.5,206.5 C 575.098,216.85 579.098,227.516 582.5,238.5C 581.196,237.013 580.03,235.346 579,233.5C 576.142,224.465 573.309,215.465 570.5,206.5 Z"/></g>
<g><path style="opacity:0.043" fill="#1d1d1d" d="M 613.5,212.5 C 613.833,212.5 614.167,212.5 614.5,212.5C 618.833,212.5 623.167,212.5 627.5,212.5C 627.5,223.833 627.5,235.167 627.5,246.5C 626.505,235.679 626.172,224.679 626.5,213.5C 621.968,213.818 617.634,213.485 613.5,212.5 Z"/></g>
<g><path style="opacity:0.184" fill="#3e3e3e" d="M 254.5,215.5 C 254.384,226.221 259.718,232.054 270.5,233C 271.056,233.383 271.389,233.883 271.5,234.5C 262.73,234.461 256.73,230.461 253.5,222.5C 253.198,219.941 253.532,217.607 254.5,215.5 Z"/></g>
<g><path style="opacity:0.461" fill="#636363" d="M 362.5,226.5 C 362.167,226.5 361.833,226.5 361.5,226.5C 360.596,227.209 360.263,228.209 360.5,229.5C 360.5,235.833 360.5,242.167 360.5,248.5C 361.136,251.106 361.136,253.606 360.5,256C 357.304,256.805 354.304,256.638 351.5,255.5C 351.833,255.5 352.167,255.5 352.5,255.5C 354.833,255.5 357.167,255.5 359.5,255.5C 359.168,244.48 359.501,233.48 360.5,222.5C 361.705,223.577 362.372,224.91 362.5,226.5 Z"/></g>
<g><path style="opacity:0.137" fill="#414141" d="M 565.5,218.5 C 567.974,220.898 569.308,223.898 569.5,227.5C 569.5,227.833 569.5,228.167 569.5,228.5C 568.883,228.389 568.383,228.056 568,227.5C 567.151,224.479 566.317,221.479 565.5,218.5 Z"/></g>
<g><path style="opacity:0.69" fill="#585858" d="M 368.5,222.5 C 371.446,226.644 373.446,231.311 374.5,236.5C 374.5,237.167 374.5,237.833 374.5,238.5C 371.531,233.601 369.531,228.267 368.5,222.5 Z"/></g>
<g><path style="opacity:0.253" fill="#2c2c2c" d="M 721.5,205.5 C 722.491,211.979 722.824,218.646 722.5,225.5C 729.5,225.5 736.5,225.5 743.5,225.5C 743.176,218.646 743.509,211.979 744.5,205.5C 744.5,212.5 744.5,219.5 744.5,226.5C 736.833,226.5 729.167,226.5 721.5,226.5C 721.5,219.5 721.5,212.5 721.5,205.5 Z"/></g>
<g><path style="opacity:0.247" fill="#444444" d="M 402.5,255.5 C 402.833,255.5 403.167,255.5 403.5,255.5C 400.713,256.477 397.713,256.81 394.5,256.5C 394.849,245.453 394.516,236.453 393.5,229.5C 392.833,229.833 392.167,230.167 391.5,230.5C 391.989,227.533 393.155,224.867 395,222.5C 395.5,233.495 395.667,244.495 395.5,255.5C 397.833,255.5 400.167,255.5 402.5,255.5 Z"/></g>
<g><path style="opacity:0.212" fill="#565656" d="M 277.5,227.5 C 281.272,227.884 284.272,229.55 286.5,232.5C 283.231,231.039 280.231,229.372 277.5,227.5 Z"/></g>
<g><path style="opacity:0.729" fill="#666666" d="M 569.5,227.5 C 572.724,233.818 575.391,240.484 577.5,247.5C 576.833,247.167 576.167,246.833 575.5,246.5C 573.298,240.562 571.298,234.562 569.5,228.5C 569.5,228.167 569.5,227.833 569.5,227.5 Z"/></g>
<g><path style="opacity:0.596" fill="#4a4a4a" d="M 503.5,222.5 C 503.347,228.869 503.68,235.203 504.5,241.5C 503.609,239.709 502.609,237.876 501.5,236C 501.783,232.898 501.783,229.898 501.5,227C 502.099,225.378 502.766,223.878 503.5,222.5 Z"/></g>
<g><path style="opacity:0.565" fill="#646464" d="M 662.5,218.5 C 661.204,223.062 660.538,227.729 660.5,232.5C 660.167,232.5 659.833,232.5 659.5,232.5C 658.57,227.537 659.57,222.87 662.5,218.5 Z"/></g>
<g><path style="opacity:0.278" fill="#2f2f2f" d="M 271.5,234.5 C 274.01,234.054 276.01,234.72 277.5,236.5C 275.214,236.405 273.214,235.738 271.5,234.5 Z"/></g>
<g><path style="opacity:0.424" fill="#4e4e4e" d="M 286.5,232.5 C 288.262,233.262 289.262,234.596 289.5,236.5C 287.738,235.738 286.738,234.404 286.5,232.5 Z"/></g>
<g><path style="opacity:0.521" fill="#818181" d="M 744.5,233.5 C 745.198,240.734 745.864,248.067 746.5,255.5C 744.541,249.25 743.874,242.584 744.5,235.5C 744.5,235.167 744.5,234.833 744.5,234.5C 744.5,234.167 744.5,233.833 744.5,233.5 Z"/></g>
<g><path style="opacity:0.454" fill="#4a4a4a" d="M 331.5,234.5 C 331.167,234.5 330.833,234.5 330.5,234.5C 323.159,234.334 315.826,234.5 308.5,235C 309.643,241.418 309.81,247.918 309,254.5C 307.647,255.704 305.981,256.371 304,256.5C 302.293,256.492 300.793,256.158 299.5,255.5C 299.833,255.5 300.167,255.5 300.5,255.5C 302.833,255.5 305.167,255.5 307.5,255.5C 307.5,248.167 307.5,240.833 307.5,233.5C 315.684,233.174 323.684,233.508 331.5,234.5 Z"/></g>
<g><path style="opacity:0.154" fill="#303030" d="M 744.5,233.5 C 744.5,233.833 744.5,234.167 744.5,234.5C 737.159,234.334 729.826,234.5 722.5,235C 722.833,235.333 723.167,235.667 723.5,236C 722.85,242.599 722.184,249.099 721.5,255.5C 721.5,248.167 721.5,240.833 721.5,233.5C 729.167,233.5 736.833,233.5 744.5,233.5 Z"/></g>
<g><path style="opacity:0.694" fill="#8d8d8d" d="M 365.5,235.5 C 367.104,236.287 367.771,237.62 367.5,239.5C 366.326,238.486 365.66,237.153 365.5,235.5 Z"/></g>
<g><path style="opacity:0.023" fill="#121212" d="M 744.5,235.5 C 743.874,242.584 744.541,249.25 746.5,255.5C 748.5,255.5 750.5,255.5 752.5,255.5C 752.833,255.5 753.167,255.5 753.5,255.5C 750.375,256.479 747.042,256.813 743.5,256.5C 743.175,249.313 743.509,242.313 744.5,235.5 Z"/></g>
<g><path style="opacity:0.047" fill="#212121" d="M 361.5,226.5 C 361.833,226.5 362.167,226.5 362.5,226.5C 363.654,229.452 364.654,232.452 365.5,235.5C 365.66,237.153 366.326,238.486 367.5,239.5C 369.506,244.521 371.506,249.521 373.5,254.5C 376.086,255.48 378.753,255.813 381.5,255.5C 378.645,256.803 375.645,256.803 372.5,255.5C 368.524,247.415 365.024,239.082 362,230.5C 361.828,236.681 361.328,242.681 360.5,248.5C 360.5,242.167 360.5,235.833 360.5,229.5C 361.404,228.791 361.737,227.791 361.5,226.5 Z"/></g>
<g><path style="opacity:0.357" fill="#3f3f3f" d="M 590.5,225.5 C 589.309,231.528 587.309,237.195 584.5,242.5C 584.631,243.376 584.298,244.043 583.5,244.5C 582.534,242.604 582.201,240.604 582.5,238.5C 583.552,238.649 584.552,238.483 585.5,238C 586.324,233.799 587.991,229.632 590.5,225.5 Z"/></g>
<g><path style="opacity:0.051" fill="#282828" d="M 597.5,231.5 C 596.796,236.29 595.129,240.623 592.5,244.5C 593.204,239.71 594.871,235.377 597.5,231.5 Z"/></g>
<g><path style="opacity:0.007" fill="#202020" d="M 374.5,236.5 C 375.558,237.6 376.392,238.934 377,240.5C 378.359,239.635 379.526,238.635 380.5,237.5C 380.5,238.167 380.5,238.833 380.5,239.5C 380.167,240.5 379.5,241.167 378.5,241.5C 376.443,241.957 376.443,242.957 378.5,244.5C 377.923,245.773 377.257,245.773 376.5,244.5C 375.828,242.47 375.162,240.47 374.5,238.5C 374.5,237.833 374.5,237.167 374.5,236.5 Z"/></g>
<g><path style="opacity:0.388" fill="#5a5a5a" d="M 545.5,226.5 C 547.94,233.671 546.273,239.838 540.5,245C 538.182,246.993 535.516,248.159 532.5,248.5C 532.5,248.167 532.5,247.833 532.5,247.5C 540.718,244.427 545.051,238.427 545.5,229.5C 545.5,228.5 545.5,227.5 545.5,226.5 Z"/></g>
<g><path style="opacity:0.067" fill="#383838" d="M 553.5,225.5 C 553.833,225.5 554.167,225.5 554.5,225.5C 556.557,233.314 555.057,240.648 550,247.5C 549.329,248.252 548.496,248.586 547.5,248.5C 552.76,241.797 554.76,234.131 553.5,225.5 Z"/></g>
<g><path style="opacity:0.114" fill="#1c1c1c" d="M 670.5,238.5 C 671.906,238.973 672.573,239.973 672.5,241.5C 671.094,241.027 670.427,240.027 670.5,238.5 Z"/></g>
<g><path style="opacity:0.666" fill="#8f8f8f" d="M 253.5,243.5 C 255.607,242.532 257.941,242.198 260.5,242.5C 261.338,242.842 261.672,243.508 261.5,244.5C 261.5,245.167 261.5,245.833 261.5,246.5C 260.596,245.791 260.263,244.791 260.5,243.5C 258.167,243.5 255.833,243.5 253.5,243.5 Z"/></g>
<g><path style="opacity:0.067" fill="#2e2e2e" d="M 279.5,237.5 C 280.748,238.334 281.415,239.667 281.5,241.5C 281.979,245.589 280.312,247.922 276.5,248.5C 280.391,245.743 281.391,242.076 279.5,237.5 Z"/></g>
<g><path style="opacity:0.369" fill="#393939" d="M 289.5,237.5 C 290.478,237.811 291.145,238.478 291.5,239.5C 290.233,241.371 290.233,243.204 291.5,245C 290.934,245.995 290.267,246.828 289.5,247.5C 289.5,244.167 289.5,240.833 289.5,237.5 Z"/></g>
<g><path style="opacity:0.302" fill="#333333" d="M 672.5,241.5 C 675.205,243.512 677.872,245.512 680.5,247.5C 676.373,247.365 673.706,245.365 672.5,241.5 Z"/></g>
<g><path style="opacity:0.055" fill="#262626" d="M 393.5,229.5 C 390.443,238.703 386.443,247.369 381.5,255.5C 385.134,247.24 388.467,238.907 391.5,230.5C 392.167,230.167 392.833,229.833 393.5,229.5 Z"/></g>
<g><path style="opacity:0.235" fill="#3b3b3b" d="M 659.5,232.5 C 659.833,232.5 660.167,232.5 660.5,232.5C 661.186,240.54 664.52,247.206 670.5,252.5C 662.728,248.25 659.061,241.584 659.5,232.5 Z"/></g>
<g><path style="opacity:0.322" fill="#3c3c3c" d="M 261.5,244.5 C 263.191,245.864 264.858,247.197 266.5,248.5C 264.486,248.608 262.82,247.942 261.5,246.5C 261.5,245.833 261.5,245.167 261.5,244.5 Z"/></g>
<g><path style="opacity:0.196" fill="#3b3b3b" d="M 696.5,244.5 C 695.713,246.104 694.38,246.771 692.5,246.5C 693.514,245.326 694.847,244.66 696.5,244.5 Z"/></g>
<g><path style="opacity:0.404" fill="#2e2e2e" d="M 700.5,244.5 C 702.145,245.479 703.479,246.812 704.5,248.5C 704.145,249.522 703.478,250.189 702.5,250.5C 702.296,248.315 701.63,246.315 700.5,244.5 Z"/></g>
<g><path style="opacity:0.173" fill="#252525" d="M 504.5,241.5 C 507.25,245.311 510.25,248.978 513.5,252.5C 508.662,250.329 505.662,246.663 504.5,241.5 Z"/></g>
<g><path style="opacity:0.809" fill="#c5c5c5" d="M 469.5,248.5 C 469.833,248.5 470.167,248.5 470.5,248.5C 478.5,248.5 486.5,248.5 494.5,248.5C 494.802,251.059 494.468,253.393 493.5,255.5C 493.5,253.5 493.5,251.5 493.5,249.5C 485.316,249.826 477.316,249.492 469.5,248.5 Z"/></g>
<g><path style="opacity:0.795" fill="#bfbfbf" d="M 436.5,248.5 C 441.167,248.5 445.833,248.5 450.5,248.5C 450.802,251.059 450.468,253.393 449.5,255.5C 449.5,253.5 449.5,251.5 449.5,249.5C 444.968,249.818 440.634,249.485 436.5,248.5 Z"/></g>
<g><path style="opacity:0.271" fill="#2e2e2e" d="M 260.5,242.5 C 257.941,242.198 255.607,242.532 253.5,243.5C 253.886,251.054 257.886,255.221 265.5,256C 275.531,258.469 283.531,255.635 289.5,247.5C 288.909,250.614 287.242,253.114 284.5,255C 275.5,259.667 266.5,259.667 257.5,255C 253.083,251.57 251.416,247.07 252.5,241.5C 255.385,241.194 258.052,241.527 260.5,242.5 Z"/></g>
<g><path style="opacity:0.318" fill="#3d3d3d" d="M 275.5,248.5 C 272.396,249.775 269.396,249.775 266.5,248.5C 269.651,248.155 272.651,248.155 275.5,248.5 Z"/></g>
<g><path style="opacity:0.061" fill="#0b0b0b" d="M 414.5,249.5 C 414.5,251.5 414.5,253.5 414.5,255.5C 412.084,253.295 412.084,251.295 414.5,249.5 Z"/></g>
<g><path style="opacity:0.11" fill="#202020" d="M 513.5,252.5 C 514.167,252.5 514.833,252.5 515.5,252.5C 515.833,253.167 516.167,253.833 516.5,254.5C 514.973,254.573 513.973,253.906 513.5,252.5 Z"/></g>
<g><path style="opacity:0.475" fill="#595959" d="M 515.5,252.5 C 518.205,253.853 520.872,255.186 523.5,256.5C 522.833,256.5 522.167,256.5 521.5,256.5C 519.597,256.204 517.93,255.537 516.5,254.5C 516.167,253.833 515.833,253.167 515.5,252.5 Z"/></g>
<g><path style="opacity:0.345" fill="#424242" d="M 670.5,252.5 C 673.923,253.363 677.256,254.53 680.5,256C 684.152,256.499 687.818,256.665 691.5,256.5C 685.143,258.024 678.81,257.524 672.5,255C 671.619,254.292 670.953,253.458 670.5,252.5 Z"/></g>
<g><path style="opacity:0.051" fill="#313131" d="M 697.5,253.5 C 697.027,254.906 696.027,255.573 694.5,255.5C 694.973,254.094 695.973,253.427 697.5,253.5 Z"/></g>
<g><path style="opacity:0.257" fill="#3f3f3f" d="M 462.5,256.5 C 462.5,256.167 462.5,255.833 462.5,255.5C 472.833,255.5 483.167,255.5 493.5,255.5C 494.468,253.393 494.802,251.059 494.5,248.5C 486.5,248.5 478.5,248.5 470.5,248.5C 470.5,248.167 470.5,247.833 470.5,247.5C 478.749,246.964 487.082,246.964 495.5,247.5C 496.213,250.237 496.213,252.904 495.5,255.5C 484.52,256.499 473.52,256.832 462.5,256.5 Z"/></g>
<g><path style="opacity:0.243" fill="#343434" d="M 592.5,244.5 C 592.263,248.71 590.93,252.544 588.5,256C 585.5,256.667 582.5,256.667 579.5,256C 577.872,252.948 576.539,249.782 575.5,246.5C 576.167,246.833 576.833,247.167 577.5,247.5C 577.622,254.638 580.955,256.971 587.5,254.5C 589.172,251.045 590.839,247.711 592.5,244.5 Z"/></g>
<g><path style="opacity:0.263" fill="#585858" d="M 627.5,212.5 C 628.495,224.322 628.828,236.322 628.5,248.5C 623.833,248.5 619.167,248.5 614.5,248.5C 614.5,250.833 614.5,253.167 614.5,255.5C 626.167,255.5 637.833,255.5 649.5,255.5C 649.5,253.167 649.5,250.833 649.5,248.5C 644.833,248.5 640.167,248.5 635.5,248.5C 635.172,236.322 635.505,224.322 636.5,212.5C 636.172,224.345 636.505,236.012 637.5,247.5C 641.622,247.34 645.956,247.34 650.5,247.5C 650.795,250.353 650.795,253.186 650.5,256C 638.171,256.5 625.838,256.667 613.5,256.5C 613.5,253.5 613.5,250.5 613.5,247.5C 618.494,247.349 623.16,247.016 627.5,246.5C 627.5,235.167 627.5,223.833 627.5,212.5 Z"/></g>
<g><path style="opacity:0.21" fill="#252525" d="M 547.5,248.5 C 547.489,250.017 546.823,251.184 545.5,252C 538.102,257.303 530.102,258.803 521.5,256.5C 522.167,256.5 522.833,256.5 523.5,256.5C 532.686,257.233 540.686,254.567 547.5,248.5 Z"/></g>
</svg>
